<?xml version="1.0" encoding="UTF-8" standalone="no"?>
<!DOCTYPE svg PUBLIC "-//W3C//DTD SVG 1.1//EN"
 "http://www.w3.org/Graphics/SVG/1.1/DTD/svg11.dtd">
<!-- Generated by graphviz version 2.26.3 (20100126.1600)
 -->
<!-- Title: controllers_diagram Pages: 1 -->
<svg width="843pt" height="1047pt"
 viewBox="0.00 0.00 843.41 1047.00" xmlns="http://www.w3.org/2000/svg" xmlns:xlink="http://www.w3.org/1999/xlink">
<g id="graph1" class="graph" transform="scale(1 1) rotate(0) translate(4 1043)">
<title>controllers_diagram</title>
<polygon fill="white" stroke="white" points="-4,5 -4,-1043 840.408,-1043 840.408,5 -4,5"/>
<!-- _diagram_info -->
<g id="node1" class="node"><title>_diagram_info</title>
<text text-anchor="start" x="284" y="-958.3" font-family="Times Roman,serif" font-size="13.00">Controllers diagram</text>
<text text-anchor="start" x="284" y="-941.3" font-family="Times Roman,serif" font-size="13.00">Date: Feb 08 2013 &#45; 21:12</text>
<text text-anchor="start" x="284" y="-924.3" font-family="Times Roman,serif" font-size="13.00">Migration version: 20130208025355</text>
<text text-anchor="start" x="284" y="-907.3" font-family="Times Roman,serif" font-size="13.00">Generated by RailRoady 1.1.0</text>
<text text-anchor="start" x="284" y="-890.3" font-family="Times Roman,serif" font-size="13.00">http://railroady.prestonlee.com</text>
</g>
<!-- ApplicationController -->
<g id="node2" class="node"><title>ApplicationController</title>
<polyline fill="none" stroke="black" points="286.03,-359.975 500.03,-359.975 "/>
<path fill="none" stroke="black" d="M500.03,-359.975C506.03,-359.975 512.03,-365.975 512.03,-371.975"/>
<polyline fill="none" stroke="black" points="512.03,-371.975 512.03,-539.975 "/>
<path fill="none" stroke="black" d="M512.03,-539.975C512.03,-545.975 506.03,-551.975 500.03,-551.975"/>
<polyline fill="none" stroke="black" points="500.03,-551.975 286.03,-551.975 "/>
<path fill="none" stroke="black" d="M286.03,-551.975C280.03,-551.975 274.03,-545.975 274.03,-539.975"/>
<polyline fill="none" stroke="black" points="274.03,-539.975 274.03,-371.975 "/>
<path fill="none" stroke="black" d="M274.03,-371.975C274.03,-365.975 280.03,-359.975 286.03,-359.975"/>
<text text-anchor="middle" x="393.03" y="-535.375" font-family="Times Roman,serif" font-size="14.00">ApplicationController</text>
<polyline fill="none" stroke="black" points="274.03,-525.975 512.03,-525.975 "/>
<text text-anchor="start" x="282.03" y="-509.375" font-family="Times Roman,serif" font-size="14.00">_one_time_conditions_valid_52?</text>
<text text-anchor="start" x="282.03" y="-491.375" font-family="Times Roman,serif" font-size="14.00">_one_time_conditions_valid_54?</text>
<text text-anchor="start" x="282.03" y="-473.375" font-family="Times Roman,serif" font-size="14.00">_one_time_conditions_valid_56?</text>
<text text-anchor="start" x="282.03" y="-455.375" font-family="Times Roman,serif" font-size="14.00">after_sign_in_path_for</text>
<text text-anchor="start" x="282.03" y="-437.375" font-family="Times Roman,serif" font-size="14.00">meta_defaults</text>
<text text-anchor="start" x="282.03" y="-419.375" font-family="Times Roman,serif" font-size="14.00">site_name</text>
<polyline fill="none" stroke="black" points="274.03,-409.975 512.03,-409.975 "/>
<polyline fill="none" stroke="black" points="274.03,-385.975 512.03,-385.975 "/>
<text text-anchor="start" x="282.03" y="-369.375" font-family="Times Roman,serif" font-size="14.00">_layout</text>
</g>
<!-- UsersController -->
<g id="node3" class="node"><title>UsersController</title>
<polyline fill="none" stroke="black" points="600.257,-364.742 814.257,-364.742 "/>
<path fill="none" stroke="black" d="M814.257,-364.742C820.257,-364.742 826.257,-370.742 826.257,-376.742"/>
<polyline fill="none" stroke="black" points="826.257,-376.742 826.257,-544.742 "/>
<path fill="none" stroke="black" d="M826.257,-544.742C826.257,-550.742 820.257,-556.742 814.257,-556.742"/>
<polyline fill="none" stroke="black" points="814.257,-556.742 600.257,-556.742 "/>
<path fill="none" stroke="black" d="M600.257,-556.742C594.257,-556.742 588.257,-550.742 588.257,-544.742"/>
<polyline fill="none" stroke="black" points="588.257,-544.742 588.257,-376.742 "/>
<path fill="none" stroke="black" d="M588.257,-376.742C588.257,-370.742 594.257,-364.742 600.257,-364.742"/>
<text text-anchor="middle" x="707.257" y="-540.142" font-family="Times Roman,serif" font-size="14.00">UsersController</text>
<polyline fill="none" stroke="black" points="588.257,-530.742 826.257,-530.742 "/>
<text text-anchor="start" x="596.257" y="-514.142" font-family="Times Roman,serif" font-size="14.00">_one_time_conditions_valid_58?</text>
<text text-anchor="start" x="596.257" y="-496.142" font-family="Times Roman,serif" font-size="14.00">destroy</text>
<text text-anchor="start" x="596.257" y="-478.142" font-family="Times Roman,serif" font-size="14.00">index</text>
<text text-anchor="start" x="596.257" y="-460.142" font-family="Times Roman,serif" font-size="14.00">owner</text>
<text text-anchor="start" x="596.257" y="-442.142" font-family="Times Roman,serif" font-size="14.00">show</text>
<text text-anchor="start" x="596.257" y="-424.142" font-family="Times Roman,serif" font-size="14.00">update</text>
<polyline fill="none" stroke="black" points="588.257,-414.742 826.257,-414.742 "/>
<polyline fill="none" stroke="black" points="588.257,-390.742 826.257,-390.742 "/>
<text text-anchor="start" x="596.257" y="-374.142" font-family="Times Roman,serif" font-size="14.00">_layout</text>
</g>
<!-- ApplicationController&#45;&gt;UsersController -->
<g id="edge2" class="edge"><title>ApplicationController&#45;&gt;UsersController</title>
<path fill="none" stroke="black" d="M512.273,-457.784C537.101,-458.161 563.27,-458.558 588.094,-458.934"/>
</g>
<!-- SitesController -->
<g id="node4" class="node"><title>SitesController</title>
<polyline fill="none" stroke="black" points="282.999,-1.5 505.999,-1.5 "/>
<path fill="none" stroke="black" d="M505.999,-1.5C511.999,-1.5 517.999,-7.5 517.999,-13.5"/>
<polyline fill="none" stroke="black" points="517.999,-13.5 517.999,-307.5 "/>
<path fill="none" stroke="black" d="M517.999,-307.5C517.999,-313.5 511.999,-319.5 505.999,-319.5"/>
<polyline fill="none" stroke="black" points="505.999,-319.5 282.999,-319.5 "/>
<path fill="none" stroke="black" d="M282.999,-319.5C276.999,-319.5 270.999,-313.5 270.999,-307.5"/>
<polyline fill="none" stroke="black" points="270.999,-307.5 270.999,-13.5 "/>
<path fill="none" stroke="black" d="M270.999,-13.5C270.999,-7.5 276.999,-1.5 282.999,-1.5"/>
<text text-anchor="middle" x="394.499" y="-302.9" font-family="Times Roman,serif" font-size="14.00">SitesController</text>
<polyline fill="none" stroke="black" points="270.999,-293.5 517.999,-293.5 "/>
<text text-anchor="start" x="278.999" y="-276.9" font-family="Times Roman,serif" font-size="14.00">_callback_around_109</text>
<text text-anchor="start" x="278.999" y="-258.9" font-family="Times Roman,serif" font-size="14.00">_callback_around_109_object</text>
<text text-anchor="start" x="278.999" y="-240.9" font-family="Times Roman,serif" font-size="14.00">_callback_before_111</text>
<text text-anchor="start" x="278.999" y="-222.9" font-family="Times Roman,serif" font-size="14.00">_one_time_conditions_valid_110?</text>
<text text-anchor="start" x="278.999" y="-204.9" font-family="Times Roman,serif" font-size="14.00">_one_time_conditions_valid_112?</text>
<text text-anchor="start" x="278.999" y="-186.9" font-family="Times Roman,serif" font-size="14.00">create</text>
<text text-anchor="start" x="278.999" y="-168.9" font-family="Times Roman,serif" font-size="14.00">destroy</text>
<text text-anchor="start" x="278.999" y="-150.9" font-family="Times Roman,serif" font-size="14.00">edit</text>
<text text-anchor="start" x="278.999" y="-132.9" font-family="Times Roman,serif" font-size="14.00">index</text>
<text text-anchor="start" x="278.999" y="-114.9" font-family="Times Roman,serif" font-size="14.00">new</text>
<text text-anchor="start" x="278.999" y="-96.9" font-family="Times Roman,serif" font-size="14.00">show</text>
<text text-anchor="start" x="278.999" y="-78.9" font-family="Times Roman,serif" font-size="14.00">sitemap</text>
<text text-anchor="start" x="278.999" y="-60.9" font-family="Times Roman,serif" font-size="14.00">update</text>
<polyline fill="none" stroke="black" points="270.999,-51.5 517.999,-51.5 "/>
<polyline fill="none" stroke="black" points="270.999,-27.5 517.999,-27.5 "/>
<text text-anchor="start" x="278.999" y="-10.9" font-family="Times Roman,serif" font-size="14.00">_layout</text>
</g>
<!-- ApplicationController&#45;&gt;SitesController -->
<g id="edge4" class="edge"><title>ApplicationController&#45;&gt;SitesController</title>
<path fill="none" stroke="black" d="M393.509,-359.634C393.573,-346.751 393.64,-333.272 393.708,-319.663"/>
</g>
<!-- FeedEntriesController -->
<g id="node5" class="node"><title>FeedEntriesController</title>
<polyline fill="none" stroke="black" points="19.0711,-557.772 242.071,-557.772 "/>
<path fill="none" stroke="black" d="M242.071,-557.772C248.071,-557.772 254.071,-563.772 254.071,-569.772"/>
<polyline fill="none" stroke="black" points="254.071,-569.772 254.071,-791.772 "/>
<path fill="none" stroke="black" d="M254.071,-791.772C254.071,-797.772 248.071,-803.772 242.071,-803.772"/>
<polyline fill="none" stroke="black" points="242.071,-803.772 19.0711,-803.772 "/>
<path fill="none" stroke="black" d="M19.0711,-803.772C13.0711,-803.772 7.07112,-797.772 7.07112,-791.772"/>
<polyline fill="none" stroke="black" points="7.07112,-791.772 7.07112,-569.772 "/>
<path fill="none" stroke="black" d="M7.07112,-569.772C7.07112,-563.772 13.0711,-557.772 19.0711,-557.772"/>
<text text-anchor="middle" x="130.571" y="-787.172" font-family="Times Roman,serif" font-size="14.00">FeedEntriesController</text>
<polyline fill="none" stroke="black" points="7.07112,-777.772 254.071,-777.772 "/>
<text text-anchor="start" x="15.0711" y="-761.172" font-family="Times Roman,serif" font-size="14.00">_callback_before_115</text>
<text text-anchor="start" x="15.0711" y="-743.172" font-family="Times Roman,serif" font-size="14.00">_one_time_conditions_valid_116?</text>
<text text-anchor="start" x="15.0711" y="-725.172" font-family="Times Roman,serif" font-size="14.00">create</text>
<text text-anchor="start" x="15.0711" y="-707.172" font-family="Times Roman,serif" font-size="14.00">destroy</text>
<text text-anchor="start" x="15.0711" y="-689.172" font-family="Times Roman,serif" font-size="14.00">edit</text>
<text text-anchor="start" x="15.0711" y="-671.172" font-family="Times Roman,serif" font-size="14.00">index</text>
<text text-anchor="start" x="15.0711" y="-653.172" font-family="Times Roman,serif" font-size="14.00">new</text>
<text text-anchor="start" x="15.0711" y="-635.172" font-family="Times Roman,serif" font-size="14.00">show</text>
<text text-anchor="start" x="15.0711" y="-617.172" font-family="Times Roman,serif" font-size="14.00">update</text>
<polyline fill="none" stroke="black" points="7.07112,-607.772 254.071,-607.772 "/>
<polyline fill="none" stroke="black" points="7.07112,-583.772 254.071,-583.772 "/>
<text text-anchor="start" x="15.0711" y="-567.172" font-family="Times Roman,serif" font-size="14.00">_layout</text>
</g>
<!-- ApplicationController&#45;&gt;FeedEntriesController -->
<g id="edge6" class="edge"><title>ApplicationController&#45;&gt;FeedEntriesController</title>
<path fill="none" stroke="black" d="M280.581,-552.288C271.816,-559.795 262.937,-567.4 254.104,-574.966"/>
</g>
<!-- ContentController -->
<g id="node6" class="node"><title>ContentController</title>
<polyline fill="none" stroke="black" points="599.408,-666.027 822.408,-666.027 "/>
<path fill="none" stroke="black" d="M822.408,-666.027C828.408,-666.027 834.408,-672.027 834.408,-678.027"/>
<polyline fill="none" stroke="black" points="834.408,-678.027 834.408,-810.027 "/>
<path fill="none" stroke="black" d="M834.408,-810.027C834.408,-816.027 828.408,-822.027 822.408,-822.027"/>
<polyline fill="none" stroke="black" points="822.408,-822.027 599.408,-822.027 "/>
<path fill="none" stroke="black" d="M599.408,-822.027C593.408,-822.027 587.408,-816.027 587.408,-810.027"/>
<polyline fill="none" stroke="black" points="587.408,-810.027 587.408,-678.027 "/>
<path fill="none" stroke="black" d="M587.408,-678.027C587.408,-672.027 593.408,-666.027 599.408,-666.027"/>
<text text-anchor="middle" x="710.908" y="-805.427" font-family="Times Roman,serif" font-size="14.00">ContentController</text>
<polyline fill="none" stroke="black" points="587.408,-796.027 834.408,-796.027 "/>
<text text-anchor="start" x="595.408" y="-779.427" font-family="Times Roman,serif" font-size="14.00">_one_time_conditions_valid_118?</text>
<text text-anchor="start" x="595.408" y="-761.427" font-family="Times Roman,serif" font-size="14.00">gold</text>
<text text-anchor="start" x="595.408" y="-743.427" font-family="Times Roman,serif" font-size="14.00">platinum</text>
<text text-anchor="start" x="595.408" y="-725.427" font-family="Times Roman,serif" font-size="14.00">silver</text>
<polyline fill="none" stroke="black" points="587.408,-716.027 834.408,-716.027 "/>
<polyline fill="none" stroke="black" points="587.408,-692.027 834.408,-692.027 "/>
<text text-anchor="start" x="595.408" y="-675.427" font-family="Times Roman,serif" font-size="14.00">_layout</text>
</g>
<!-- ApplicationController&#45;&gt;ContentController -->
<g id="edge8" class="edge"><title>ApplicationController&#45;&gt;ContentController</title>
<path fill="none" stroke="black" d="M499.32,-552.293C540.11,-589.255 586.116,-630.944 624.785,-665.985"/>
</g>
<!-- HomeController -->
<g id="node8" class="node"><title>HomeController</title>
<polyline fill="none" stroke="black" points="359.679,-702.388 460.679,-702.388 "/>
<path fill="none" stroke="black" d="M460.679,-702.388C466.679,-702.388 472.679,-708.388 472.679,-714.388"/>
<polyline fill="none" stroke="black" points="472.679,-714.388 472.679,-790.388 "/>
<path fill="none" stroke="black" d="M472.679,-790.388C472.679,-796.388 466.679,-802.388 460.679,-802.388"/>
<polyline fill="none" stroke="black" points="460.679,-802.388 359.679,-802.388 "/>
<path fill="none" stroke="black" d="M359.679,-802.388C353.679,-802.388 347.679,-796.388 347.679,-790.388"/>
<polyline fill="none" stroke="black" points="347.679,-790.388 347.679,-714.388 "/>
<path fill="none" stroke="black" d="M347.679,-714.388C347.679,-708.388 353.679,-702.388 359.679,-702.388"/>
<text text-anchor="middle" x="410.179" y="-785.788" font-family="Times Roman,serif" font-size="14.00">HomeController</text>
<polyline fill="none" stroke="black" points="347.679,-776.388 472.679,-776.388 "/>
<polyline fill="none" stroke="black" points="347.679,-752.388 472.679,-752.388 "/>
<polyline fill="none" stroke="black" points="347.679,-728.388 472.679,-728.388 "/>
<text text-anchor="start" x="355.679" y="-711.788" font-family="Times Roman,serif" font-size="14.00">_layout</text>
</g>
<!-- ApplicationController&#45;&gt;HomeController -->
<g id="edge10" class="edge"><title>ApplicationController&#45;&gt;HomeController</title>
<path fill="none" stroke="black" d="M398.597,-552.212C401.492,-602.249 404.911,-661.335 407.28,-702.283"/>
</g>
<!-- ClassifiedsController -->
<g id="node9" class="node"><title>ClassifiedsController</title>
<polyline fill="none" stroke="black" points="13,-124.564 236,-124.564 "/>
<path fill="none" stroke="black" d="M236,-124.564C242,-124.564 248,-130.564 248,-136.564"/>
<polyline fill="none" stroke="black" points="248,-136.564 248,-358.564 "/>
<path fill="none" stroke="black" d="M248,-358.564C248,-364.564 242,-370.564 236,-370.564"/>
<polyline fill="none" stroke="black" points="236,-370.564 13,-370.564 "/>
<path fill="none" stroke="black" d="M13,-370.564C7,-370.564 1,-364.564 1,-358.564"/>
<polyline fill="none" stroke="black" points="1,-358.564 1,-136.564 "/>
<path fill="none" stroke="black" d="M1,-136.564C1,-130.564 7,-124.564 13,-124.564"/>
<text text-anchor="middle" x="124.5" y="-353.964" font-family="Times Roman,serif" font-size="14.00">ClassifiedsController</text>
<polyline fill="none" stroke="black" points="1,-344.564 248,-344.564 "/>
<text text-anchor="start" x="9" y="-327.964" font-family="Times Roman,serif" font-size="14.00">_callback_before_129</text>
<text text-anchor="start" x="9" y="-309.964" font-family="Times Roman,serif" font-size="14.00">_one_time_conditions_valid_130?</text>
<text text-anchor="start" x="9" y="-291.964" font-family="Times Roman,serif" font-size="14.00">create</text>
<text text-anchor="start" x="9" y="-273.964" font-family="Times Roman,serif" font-size="14.00">destroy</text>
<text text-anchor="start" x="9" y="-255.964" font-family="Times Roman,serif" font-size="14.00">edit</text>
<text text-anchor="start" x="9" y="-237.964" font-family="Times Roman,serif" font-size="14.00">index</text>
<text text-anchor="start" x="9" y="-219.964" font-family="Times Roman,serif" font-size="14.00">new</text>
<text text-anchor="start" x="9" y="-201.964" font-family="Times Roman,serif" font-size="14.00">show</text>
<text text-anchor="start" x="9" y="-183.964" font-family="Times Roman,serif" font-size="14.00">update</text>
<polyline fill="none" stroke="black" points="1,-174.564 248,-174.564 "/>
<polyline fill="none" stroke="black" points="1,-150.564 248,-150.564 "/>
<text text-anchor="start" x="9" y="-133.964" font-family="Times Roman,serif" font-size="14.00">_layout</text>
</g>
<!-- ApplicationController&#45;&gt;ClassifiedsController -->
<g id="edge12" class="edge"><title>ApplicationController&#45;&gt;ClassifiedsController</title>
<path fill="none" stroke="black" d="M273.685,-363.349C265.28,-356.826 256.797,-350.242 248.369,-343.701"/>
</g>
<!-- SubscribersController -->
<g id="node10" class="node"><title>SubscribersController</title>
<polyline fill="none" stroke="black" points="592.812,-53.4767 815.812,-53.4767 "/>
<path fill="none" stroke="black" d="M815.812,-53.4767C821.812,-53.4767 827.812,-59.4767 827.812,-65.4767"/>
<polyline fill="none" stroke="black" points="827.812,-65.4767 827.812,-287.477 "/>
<path fill="none" stroke="black" d="M827.812,-287.477C827.812,-293.477 821.812,-299.477 815.812,-299.477"/>
<polyline fill="none" stroke="black" points="815.812,-299.477 592.812,-299.477 "/>
<path fill="none" stroke="black" d="M592.812,-299.477C586.812,-299.477 580.812,-293.477 580.812,-287.477"/>
<polyline fill="none" stroke="black" points="580.812,-287.477 580.812,-65.4767 "/>
<path fill="none" stroke="black" d="M580.812,-65.4767C580.812,-59.4767 586.812,-53.4767 592.812,-53.4767"/>
<text text-anchor="middle" x="704.312" y="-282.877" font-family="Times Roman,serif" font-size="14.00">SubscribersController</text>
<polyline fill="none" stroke="black" points="580.812,-273.477 827.812,-273.477 "/>
<text text-anchor="start" x="588.812" y="-256.877" font-family="Times Roman,serif" font-size="14.00">_callback_before_135</text>
<text text-anchor="start" x="588.812" y="-238.877" font-family="Times Roman,serif" font-size="14.00">_one_time_conditions_valid_136?</text>
<text text-anchor="start" x="588.812" y="-220.877" font-family="Times Roman,serif" font-size="14.00">create</text>
<text text-anchor="start" x="588.812" y="-202.877" font-family="Times Roman,serif" font-size="14.00">destroy</text>
<text text-anchor="start" x="588.812" y="-184.877" font-family="Times Roman,serif" font-size="14.00">edit</text>
<text text-anchor="start" x="588.812" y="-166.877" font-family="Times Roman,serif" font-size="14.00">index</text>
<text text-anchor="start" x="588.812" y="-148.877" font-family="Times Roman,serif" font-size="14.00">new</text>
<text text-anchor="start" x="588.812" y="-130.877" font-family="Times Roman,serif" font-size="14.00">show</text>
<text text-anchor="start" x="588.812" y="-112.877" font-family="Times Roman,serif" font-size="14.00">update</text>
<polyline fill="none" stroke="black" points="580.812,-103.477 827.812,-103.477 "/>
<polyline fill="none" stroke="black" points="580.812,-79.4767 827.812,-79.4767 "/>
<text text-anchor="start" x="588.812" y="-62.8767" font-family="Times Roman,serif" font-size="14.00">_layout</text>
</g>
<!-- ApplicationController&#45;&gt;SubscribersController -->
<g id="edge14" class="edge"><title>ApplicationController&#45;&gt;SubscribersController</title>
<path fill="none" stroke="black" d="M500.155,-359.788C526.096,-336.496 554.033,-311.411 580.665,-287.499"/>
</g>
<!-- RegistrationsController -->
<g id="node7" class="node"><title>RegistrationsController</title>
<polyline fill="none" stroke="black" points="13,-881.5 165,-881.5 "/>
<path fill="none" stroke="black" d="M165,-881.5C171,-881.5 177,-887.5 177,-893.5"/>
<polyline fill="none" stroke="black" points="177,-893.5 177,-1025.5 "/>
<path fill="none" stroke="black" d="M177,-1025.5C177,-1031.5 171,-1037.5 165,-1037.5"/>
<polyline fill="none" stroke="black" points="165,-1037.5 13,-1037.5 "/>
<path fill="none" stroke="black" d="M13,-1037.5C7,-1037.5 1,-1031.5 1,-1025.5"/>
<polyline fill="none" stroke="black" points="1,-1025.5 1,-893.5 "/>
<path fill="none" stroke="black" d="M1,-893.5C1,-887.5 7,-881.5 13,-881.5"/>
<text text-anchor="middle" x="89" y="-1020.9" font-family="Times Roman,serif" font-size="14.00">RegistrationsController</text>
<polyline fill="none" stroke="black" points="1,-1011.5 177,-1011.5 "/>
<text text-anchor="start" x="9" y="-994.9" font-family="Times Roman,serif" font-size="14.00">new</text>
<text text-anchor="start" x="9" y="-976.9" font-family="Times Roman,serif" font-size="14.00">update_card</text>
<text text-anchor="start" x="9" y="-958.9" font-family="Times Roman,serif" font-size="14.00">update_plan</text>
<polyline fill="none" stroke="black" points="1,-949.5 177,-949.5 "/>
<polyline fill="none" stroke="black" points="1,-925.5 177,-925.5 "/>
<text text-anchor="start" x="9" y="-908.9" font-family="Times Roman,serif" font-size="14.00">_layout</text>
<text text-anchor="start" x="9" y="-890.9" font-family="Times Roman,serif" font-size="14.00">build_resource</text>
</g>
</g>
</svg>
