<?xml version="1.0" encoding="UTF-8" standalone="no"?>
<!DOCTYPE svg PUBLIC "-//W3C//DTD SVG 1.1//EN"
 "http://www.w3.org/Graphics/SVG/1.1/DTD/svg11.dtd">
<!-- Generated by graphviz version 2.26.3 (20100126.1600)
 -->
<!-- Title: controllers_diagram Pages: 1 -->
<svg width="900pt" height="881pt"
 viewBox="0.00 0.00 900.00 881.00" xmlns="http://www.w3.org/2000/svg" xmlns:xlink="http://www.w3.org/1999/xlink">
<g id="graph1" class="graph" transform="scale(1 1) rotate(0) translate(4 877)">
<title>controllers_diagram</title>
<polygon fill="white" stroke="white" points="-4,5 -4,-877 897,-877 897,5 -4,5"/>
<!-- _diagram_info -->
<g id="node1" class="node"><title>_diagram_info</title>
<text text-anchor="start" x="621" y="-435.3" font-family="Times Roman,serif" font-size="13.00">Controllers diagram</text>
<text text-anchor="start" x="621" y="-418.3" font-family="Times Roman,serif" font-size="13.00">Date: Feb 01 2013 &#45; 18:02</text>
<text text-anchor="start" x="621" y="-401.3" font-family="Times Roman,serif" font-size="13.00">Migration version: 20130131064836</text>
<text text-anchor="start" x="621" y="-384.3" font-family="Times Roman,serif" font-size="13.00">Generated by RailRoady 1.1.0</text>
<text text-anchor="start" x="621" y="-367.3" font-family="Times Roman,serif" font-size="13.00">http://railroady.prestonlee.com</text>
</g>
<!-- ApplicationController -->
<g id="node2" class="node"><title>ApplicationController</title>
<polyline fill="none" stroke="black" points="275.172,-300.111 489.172,-300.111 "/>
<path fill="none" stroke="black" d="M489.172,-300.111C495.172,-300.111 501.172,-306.111 501.172,-312.111"/>
<polyline fill="none" stroke="black" points="501.172,-312.111 501.172,-444.111 "/>
<path fill="none" stroke="black" d="M501.172,-444.111C501.172,-450.111 495.172,-456.111 489.172,-456.111"/>
<polyline fill="none" stroke="black" points="489.172,-456.111 275.172,-456.111 "/>
<path fill="none" stroke="black" d="M275.172,-456.111C269.172,-456.111 263.172,-450.111 263.172,-444.111"/>
<polyline fill="none" stroke="black" points="263.172,-444.111 263.172,-312.111 "/>
<path fill="none" stroke="black" d="M263.172,-312.111C263.172,-306.111 269.172,-300.111 275.172,-300.111"/>
<text text-anchor="middle" x="382.172" y="-439.511" font-family="Times Roman,serif" font-size="14.00">ApplicationController</text>
<polyline fill="none" stroke="black" points="263.172,-430.111 501.172,-430.111 "/>
<text text-anchor="start" x="271.172" y="-413.511" font-family="Times Roman,serif" font-size="14.00">_one_time_conditions_valid_52?</text>
<text text-anchor="start" x="271.172" y="-395.511" font-family="Times Roman,serif" font-size="14.00">_one_time_conditions_valid_54?</text>
<text text-anchor="start" x="271.172" y="-377.511" font-family="Times Roman,serif" font-size="14.00">after_sign_in_path_for</text>
<text text-anchor="start" x="271.172" y="-359.511" font-family="Times Roman,serif" font-size="14.00">meta_defaults</text>
<polyline fill="none" stroke="black" points="263.172,-350.111 501.172,-350.111 "/>
<polyline fill="none" stroke="black" points="263.172,-326.111 501.172,-326.111 "/>
<text text-anchor="start" x="271.172" y="-309.511" font-family="Times Roman,serif" font-size="14.00">_layout</text>
</g>
<!-- UsersController -->
<g id="node3" class="node"><title>UsersController</title>
<polyline fill="none" stroke="black" points="532.4,-98.2228 746.4,-98.2228 "/>
<path fill="none" stroke="black" d="M746.4,-98.2228C752.4,-98.2228 758.4,-104.223 758.4,-110.223"/>
<polyline fill="none" stroke="black" points="758.4,-110.223 758.4,-260.223 "/>
<path fill="none" stroke="black" d="M758.4,-260.223C758.4,-266.223 752.4,-272.223 746.4,-272.223"/>
<polyline fill="none" stroke="black" points="746.4,-272.223 532.4,-272.223 "/>
<path fill="none" stroke="black" d="M532.4,-272.223C526.4,-272.223 520.4,-266.223 520.4,-260.223"/>
<polyline fill="none" stroke="black" points="520.4,-260.223 520.4,-110.223 "/>
<path fill="none" stroke="black" d="M520.4,-110.223C520.4,-104.223 526.4,-98.2228 532.4,-98.2228"/>
<text text-anchor="middle" x="639.4" y="-255.623" font-family="Times Roman,serif" font-size="14.00">UsersController</text>
<polyline fill="none" stroke="black" points="520.4,-246.223 758.4,-246.223 "/>
<text text-anchor="start" x="528.4" y="-229.623" font-family="Times Roman,serif" font-size="14.00">_one_time_conditions_valid_56?</text>
<text text-anchor="start" x="528.4" y="-211.623" font-family="Times Roman,serif" font-size="14.00">destroy</text>
<text text-anchor="start" x="528.4" y="-193.623" font-family="Times Roman,serif" font-size="14.00">index</text>
<text text-anchor="start" x="528.4" y="-175.623" font-family="Times Roman,serif" font-size="14.00">show</text>
<text text-anchor="start" x="528.4" y="-157.623" font-family="Times Roman,serif" font-size="14.00">update</text>
<polyline fill="none" stroke="black" points="520.4,-148.223 758.4,-148.223 "/>
<polyline fill="none" stroke="black" points="520.4,-124.223 758.4,-124.223 "/>
<text text-anchor="start" x="528.4" y="-107.623" font-family="Times Roman,serif" font-size="14.00">_layout</text>
</g>
<!-- ApplicationController&#45;&gt;UsersController -->
<g id="edge2" class="edge"><title>ApplicationController&#45;&gt;UsersController</title>
<path fill="none" stroke="black" d="M486.425,-299.934C498.541,-290.849 510.957,-281.539 523.22,-272.343"/>
</g>
<!-- FeedEntriesController -->
<g id="node4" class="node"><title>FeedEntriesController</title>
<polyline fill="none" stroke="black" points="310.093,-1.5 453.093,-1.5 "/>
<path fill="none" stroke="black" d="M453.093,-1.5C459.093,-1.5 465.093,-7.5 465.093,-13.5"/>
<polyline fill="none" stroke="black" points="465.093,-13.5 465.093,-199.5 "/>
<path fill="none" stroke="black" d="M465.093,-199.5C465.093,-205.5 459.093,-211.5 453.093,-211.5"/>
<polyline fill="none" stroke="black" points="453.093,-211.5 310.093,-211.5 "/>
<path fill="none" stroke="black" d="M310.093,-211.5C304.093,-211.5 298.093,-205.5 298.093,-199.5"/>
<polyline fill="none" stroke="black" points="298.093,-199.5 298.093,-13.5 "/>
<path fill="none" stroke="black" d="M298.093,-13.5C298.093,-7.5 304.093,-1.5 310.093,-1.5"/>
<text text-anchor="middle" x="381.593" y="-194.9" font-family="Times Roman,serif" font-size="14.00">FeedEntriesController</text>
<polyline fill="none" stroke="black" points="298.093,-185.5 465.093,-185.5 "/>
<text text-anchor="start" x="306.093" y="-168.9" font-family="Times Roman,serif" font-size="14.00">create</text>
<text text-anchor="start" x="306.093" y="-150.9" font-family="Times Roman,serif" font-size="14.00">destroy</text>
<text text-anchor="start" x="306.093" y="-132.9" font-family="Times Roman,serif" font-size="14.00">edit</text>
<text text-anchor="start" x="306.093" y="-114.9" font-family="Times Roman,serif" font-size="14.00">index</text>
<text text-anchor="start" x="306.093" y="-96.9" font-family="Times Roman,serif" font-size="14.00">new</text>
<text text-anchor="start" x="306.093" y="-78.9" font-family="Times Roman,serif" font-size="14.00">show</text>
<text text-anchor="start" x="306.093" y="-60.9" font-family="Times Roman,serif" font-size="14.00">update</text>
<polyline fill="none" stroke="black" points="298.093,-51.5 465.093,-51.5 "/>
<polyline fill="none" stroke="black" points="298.093,-27.5 465.093,-27.5 "/>
<text text-anchor="start" x="306.093" y="-10.9" font-family="Times Roman,serif" font-size="14.00">_layout</text>
</g>
<!-- ApplicationController&#45;&gt;FeedEntriesController -->
<g id="edge4" class="edge"><title>ApplicationController&#45;&gt;FeedEntriesController</title>
<path fill="none" stroke="black" d="M382.005,-299.914C381.947,-272.411 381.88,-241.037 381.817,-211.678"/>
</g>
<!-- ContentController -->
<g id="node5" class="node"><title>ContentController</title>
<polyline fill="none" stroke="black" points="18.0302,-493.241 232.03,-493.241 "/>
<path fill="none" stroke="black" d="M232.03,-493.241C238.03,-493.241 244.03,-499.241 244.03,-505.241"/>
<polyline fill="none" stroke="black" points="244.03,-505.241 244.03,-637.241 "/>
<path fill="none" stroke="black" d="M244.03,-637.241C244.03,-643.241 238.03,-649.241 232.03,-649.241"/>
<polyline fill="none" stroke="black" points="232.03,-649.241 18.0302,-649.241 "/>
<path fill="none" stroke="black" d="M18.0302,-649.241C12.0302,-649.241 6.0302,-643.241 6.0302,-637.241"/>
<polyline fill="none" stroke="black" points="6.0302,-637.241 6.0302,-505.241 "/>
<path fill="none" stroke="black" d="M6.0302,-505.241C6.0302,-499.241 12.0302,-493.241 18.0302,-493.241"/>
<text text-anchor="middle" x="125.03" y="-632.641" font-family="Times Roman,serif" font-size="14.00">ContentController</text>
<polyline fill="none" stroke="black" points="6.0302,-623.241 244.03,-623.241 "/>
<text text-anchor="start" x="14.0302" y="-606.641" font-family="Times Roman,serif" font-size="14.00">_one_time_conditions_valid_58?</text>
<text text-anchor="start" x="14.0302" y="-588.641" font-family="Times Roman,serif" font-size="14.00">gold</text>
<text text-anchor="start" x="14.0302" y="-570.641" font-family="Times Roman,serif" font-size="14.00">platinum</text>
<text text-anchor="start" x="14.0302" y="-552.641" font-family="Times Roman,serif" font-size="14.00">silver</text>
<polyline fill="none" stroke="black" points="6.0302,-543.241 244.03,-543.241 "/>
<polyline fill="none" stroke="black" points="6.0302,-519.241 244.03,-519.241 "/>
<text text-anchor="start" x="14.0302" y="-502.641" font-family="Times Roman,serif" font-size="14.00">_layout</text>
</g>
<!-- ApplicationController&#45;&gt;ContentController -->
<g id="edge6" class="edge"><title>ApplicationController&#45;&gt;ContentController</title>
<path fill="none" stroke="black" d="M277.953,-456.386C261.804,-468.515 245.123,-481.044 228.98,-493.169"/>
</g>
<!-- HomeController -->
<g id="node7" class="node"><title>HomeController</title>
<polyline fill="none" stroke="black" points="589.409,-520.444 690.409,-520.444 "/>
<path fill="none" stroke="black" d="M690.409,-520.444C696.409,-520.444 702.409,-526.444 702.409,-532.444"/>
<polyline fill="none" stroke="black" points="702.409,-532.444 702.409,-608.444 "/>
<path fill="none" stroke="black" d="M702.409,-608.444C702.409,-614.444 696.409,-620.444 690.409,-620.444"/>
<polyline fill="none" stroke="black" points="690.409,-620.444 589.409,-620.444 "/>
<path fill="none" stroke="black" d="M589.409,-620.444C583.409,-620.444 577.409,-614.444 577.409,-608.444"/>
<polyline fill="none" stroke="black" points="577.409,-608.444 577.409,-532.444 "/>
<path fill="none" stroke="black" d="M577.409,-532.444C577.409,-526.444 583.409,-520.444 589.409,-520.444"/>
<text text-anchor="middle" x="639.909" y="-603.844" font-family="Times Roman,serif" font-size="14.00">HomeController</text>
<polyline fill="none" stroke="black" points="577.409,-594.444 702.409,-594.444 "/>
<polyline fill="none" stroke="black" points="577.409,-570.444 702.409,-570.444 "/>
<polyline fill="none" stroke="black" points="577.409,-546.444 702.409,-546.444 "/>
<text text-anchor="start" x="585.409" y="-529.844" font-family="Times Roman,serif" font-size="14.00">_layout</text>
</g>
<!-- ApplicationController&#45;&gt;HomeController -->
<g id="edge8" class="edge"><title>ApplicationController&#45;&gt;HomeController</title>
<path fill="none" stroke="black" d="M487.004,-456.34C517.664,-479.221 550.207,-503.505 577.354,-523.763"/>
</g>
<!-- ClassifiedsController -->
<g id="node8" class="node"><title>ClassifiedsController</title>
<polyline fill="none" stroke="black" points="276.136,-526.841 490.136,-526.841 "/>
<path fill="none" stroke="black" d="M490.136,-526.841C496.136,-526.841 502.136,-532.841 502.136,-538.841"/>
<polyline fill="none" stroke="black" points="502.136,-538.841 502.136,-760.841 "/>
<path fill="none" stroke="black" d="M502.136,-760.841C502.136,-766.841 496.136,-772.841 490.136,-772.841"/>
<polyline fill="none" stroke="black" points="490.136,-772.841 276.136,-772.841 "/>
<path fill="none" stroke="black" d="M276.136,-772.841C270.136,-772.841 264.136,-766.841 264.136,-760.841"/>
<polyline fill="none" stroke="black" points="264.136,-760.841 264.136,-538.841 "/>
<path fill="none" stroke="black" d="M264.136,-538.841C264.136,-532.841 270.136,-526.841 276.136,-526.841"/>
<text text-anchor="middle" x="383.136" y="-756.241" font-family="Times Roman,serif" font-size="14.00">ClassifiedsController</text>
<polyline fill="none" stroke="black" points="264.136,-746.841 502.136,-746.841 "/>
<text text-anchor="start" x="272.136" y="-730.241" font-family="Times Roman,serif" font-size="14.00">_callback_before_93</text>
<text text-anchor="start" x="272.136" y="-712.241" font-family="Times Roman,serif" font-size="14.00">_one_time_conditions_valid_94?</text>
<text text-anchor="start" x="272.136" y="-694.241" font-family="Times Roman,serif" font-size="14.00">create</text>
<text text-anchor="start" x="272.136" y="-676.241" font-family="Times Roman,serif" font-size="14.00">destroy</text>
<text text-anchor="start" x="272.136" y="-658.241" font-family="Times Roman,serif" font-size="14.00">edit</text>
<text text-anchor="start" x="272.136" y="-640.241" font-family="Times Roman,serif" font-size="14.00">index</text>
<text text-anchor="start" x="272.136" y="-622.241" font-family="Times Roman,serif" font-size="14.00">new</text>
<text text-anchor="start" x="272.136" y="-604.241" font-family="Times Roman,serif" font-size="14.00">show</text>
<text text-anchor="start" x="272.136" y="-586.241" font-family="Times Roman,serif" font-size="14.00">update</text>
<polyline fill="none" stroke="black" points="264.136,-576.841 502.136,-576.841 "/>
<polyline fill="none" stroke="black" points="264.136,-552.841 502.136,-552.841 "/>
<text text-anchor="start" x="272.136" y="-536.241" font-family="Times Roman,serif" font-size="14.00">_layout</text>
</g>
<!-- ApplicationController&#45;&gt;ClassifiedsController -->
<g id="edge10" class="edge"><title>ApplicationController&#45;&gt;ClassifiedsController</title>
<path fill="none" stroke="black" d="M382.45,-456.342C382.527,-478.292 382.614,-502.706 382.699,-526.595"/>
</g>
<!-- SubscribersController -->
<g id="node9" class="node"><title>SubscribersController</title>
<polyline fill="none" stroke="black" points="13,-62.8698 236,-62.8698 "/>
<path fill="none" stroke="black" d="M236,-62.8698C242,-62.8698 248,-68.8698 248,-74.8698"/>
<polyline fill="none" stroke="black" points="248,-74.8698 248,-296.87 "/>
<path fill="none" stroke="black" d="M248,-296.87C248,-302.87 242,-308.87 236,-308.87"/>
<polyline fill="none" stroke="black" points="236,-308.87 13,-308.87 "/>
<path fill="none" stroke="black" d="M13,-308.87C7,-308.87 1,-302.87 1,-296.87"/>
<polyline fill="none" stroke="black" points="1,-296.87 1,-74.8698 "/>
<path fill="none" stroke="black" d="M1,-74.8698C1,-68.8698 7,-62.8698 13,-62.8698"/>
<text text-anchor="middle" x="124.5" y="-292.27" font-family="Times Roman,serif" font-size="14.00">SubscribersController</text>
<polyline fill="none" stroke="black" points="1,-282.87 248,-282.87 "/>
<text text-anchor="start" x="9" y="-266.27" font-family="Times Roman,serif" font-size="14.00">_callback_before_99</text>
<text text-anchor="start" x="9" y="-248.27" font-family="Times Roman,serif" font-size="14.00">_one_time_conditions_valid_100?</text>
<text text-anchor="start" x="9" y="-230.27" font-family="Times Roman,serif" font-size="14.00">create</text>
<text text-anchor="start" x="9" y="-212.27" font-family="Times Roman,serif" font-size="14.00">destroy</text>
<text text-anchor="start" x="9" y="-194.27" font-family="Times Roman,serif" font-size="14.00">edit</text>
<text text-anchor="start" x="9" y="-176.27" font-family="Times Roman,serif" font-size="14.00">index</text>
<text text-anchor="start" x="9" y="-158.27" font-family="Times Roman,serif" font-size="14.00">new</text>
<text text-anchor="start" x="9" y="-140.27" font-family="Times Roman,serif" font-size="14.00">show</text>
<text text-anchor="start" x="9" y="-122.27" font-family="Times Roman,serif" font-size="14.00">update</text>
<polyline fill="none" stroke="black" points="1,-112.87 248,-112.87 "/>
<polyline fill="none" stroke="black" points="1,-88.8698 248,-88.8698 "/>
<text text-anchor="start" x="9" y="-72.2698" font-family="Times Roman,serif" font-size="14.00">_layout</text>
</g>
<!-- ApplicationController&#45;&gt;SubscribersController -->
<g id="edge12" class="edge"><title>ApplicationController&#45;&gt;SubscribersController</title>
<path fill="none" stroke="black" d="M277.367,-299.919C267.753,-292.747 257.954,-285.436 248.194,-278.155"/>
</g>
<!-- RegistrationsController -->
<g id="node6" class="node"><title>RegistrationsController</title>
<polyline fill="none" stroke="black" points="727,-715.5 879,-715.5 "/>
<path fill="none" stroke="black" d="M879,-715.5C885,-715.5 891,-721.5 891,-727.5"/>
<polyline fill="none" stroke="black" points="891,-727.5 891,-859.5 "/>
<path fill="none" stroke="black" d="M891,-859.5C891,-865.5 885,-871.5 879,-871.5"/>
<polyline fill="none" stroke="black" points="879,-871.5 727,-871.5 "/>
<path fill="none" stroke="black" d="M727,-871.5C721,-871.5 715,-865.5 715,-859.5"/>
<polyline fill="none" stroke="black" points="715,-859.5 715,-727.5 "/>
<path fill="none" stroke="black" d="M715,-727.5C715,-721.5 721,-715.5 727,-715.5"/>
<text text-anchor="middle" x="803" y="-854.9" font-family="Times Roman,serif" font-size="14.00">RegistrationsController</text>
<polyline fill="none" stroke="black" points="715,-845.5 891,-845.5 "/>
<text text-anchor="start" x="723" y="-828.9" font-family="Times Roman,serif" font-size="14.00">new</text>
<text text-anchor="start" x="723" y="-810.9" font-family="Times Roman,serif" font-size="14.00">update_card</text>
<text text-anchor="start" x="723" y="-792.9" font-family="Times Roman,serif" font-size="14.00">update_plan</text>
<polyline fill="none" stroke="black" points="715,-783.5 891,-783.5 "/>
<polyline fill="none" stroke="black" points="715,-759.5 891,-759.5 "/>
<text text-anchor="start" x="723" y="-742.9" font-family="Times Roman,serif" font-size="14.00">_layout</text>
<text text-anchor="start" x="723" y="-724.9" font-family="Times Roman,serif" font-size="14.00">build_resource</text>
</g>
</g>
</svg>
