<?xml version="1.0" encoding="UTF-8" standalone="no"?>
<!DOCTYPE svg PUBLIC "-//W3C//DTD SVG 1.1//EN"
 "http://www.w3.org/Graphics/SVG/1.1/DTD/svg11.dtd">
<!-- Generated by graphviz version 2.26.3 (20100126.1600)
 -->
<!-- Title: controllers_diagram Pages: 1 -->
<svg width="1076pt" height="932pt"
 viewBox="0.00 0.00 1076.00 932.00" xmlns="http://www.w3.org/2000/svg" xmlns:xlink="http://www.w3.org/1999/xlink">
<g id="graph1" class="graph" transform="scale(1 1) rotate(0) translate(4 928)">
<title>controllers_diagram</title>
<polygon fill="white" stroke="white" points="-4,5 -4,-928 1073,-928 1073,5 -4,5"/>
<!-- _diagram_info -->
<g id="node1" class="node"><title>_diagram_info</title>
<text text-anchor="start" x="825" y="-843.3" font-family="Times Roman,serif" font-size="13.00">Controllers diagram</text>
<text text-anchor="start" x="825" y="-826.3" font-family="Times Roman,serif" font-size="13.00">Date: Feb 02 2013 &#45; 16:47</text>
<text text-anchor="start" x="825" y="-809.3" font-family="Times Roman,serif" font-size="13.00">Migration version: 20130202022554</text>
<text text-anchor="start" x="825" y="-792.3" font-family="Times Roman,serif" font-size="13.00">Generated by RailRoady 1.1.0</text>
<text text-anchor="start" x="825" y="-775.3" font-family="Times Roman,serif" font-size="13.00">http://railroady.prestonlee.com</text>
</g>
<!-- ApplicationController -->
<g id="node2" class="node"><title>ApplicationController</title>
<polyline fill="none" stroke="black" points="278.375,-300.117 492.375,-300.117 "/>
<path fill="none" stroke="black" d="M492.375,-300.117C498.375,-300.117 504.375,-306.117 504.375,-312.117"/>
<polyline fill="none" stroke="black" points="504.375,-312.117 504.375,-444.117 "/>
<path fill="none" stroke="black" d="M504.375,-444.117C504.375,-450.117 498.375,-456.117 492.375,-456.117"/>
<polyline fill="none" stroke="black" points="492.375,-456.117 278.375,-456.117 "/>
<path fill="none" stroke="black" d="M278.375,-456.117C272.375,-456.117 266.375,-450.117 266.375,-444.117"/>
<polyline fill="none" stroke="black" points="266.375,-444.117 266.375,-312.117 "/>
<path fill="none" stroke="black" d="M266.375,-312.117C266.375,-306.117 272.375,-300.117 278.375,-300.117"/>
<text text-anchor="middle" x="385.375" y="-439.517" font-family="Times Roman,serif" font-size="14.00">ApplicationController</text>
<polyline fill="none" stroke="black" points="266.375,-430.117 504.375,-430.117 "/>
<text text-anchor="start" x="274.375" y="-413.517" font-family="Times Roman,serif" font-size="14.00">_one_time_conditions_valid_52?</text>
<text text-anchor="start" x="274.375" y="-395.517" font-family="Times Roman,serif" font-size="14.00">_one_time_conditions_valid_54?</text>
<text text-anchor="start" x="274.375" y="-377.517" font-family="Times Roman,serif" font-size="14.00">after_sign_in_path_for</text>
<text text-anchor="start" x="274.375" y="-359.517" font-family="Times Roman,serif" font-size="14.00">meta_defaults</text>
<polyline fill="none" stroke="black" points="266.375,-350.117 504.375,-350.117 "/>
<polyline fill="none" stroke="black" points="266.375,-326.117 504.375,-326.117 "/>
<text text-anchor="start" x="274.375" y="-309.517" font-family="Times Roman,serif" font-size="14.00">_layout</text>
</g>
<!-- UsersController -->
<g id="node3" class="node"><title>UsersController</title>
<polyline fill="none" stroke="black" points="588.506,-291.841 802.506,-291.841 "/>
<path fill="none" stroke="black" d="M802.506,-291.841C808.506,-291.841 814.506,-297.841 814.506,-303.841"/>
<polyline fill="none" stroke="black" points="814.506,-303.841 814.506,-453.841 "/>
<path fill="none" stroke="black" d="M814.506,-453.841C814.506,-459.841 808.506,-465.841 802.506,-465.841"/>
<polyline fill="none" stroke="black" points="802.506,-465.841 588.506,-465.841 "/>
<path fill="none" stroke="black" d="M588.506,-465.841C582.506,-465.841 576.506,-459.841 576.506,-453.841"/>
<polyline fill="none" stroke="black" points="576.506,-453.841 576.506,-303.841 "/>
<path fill="none" stroke="black" d="M576.506,-303.841C576.506,-297.841 582.506,-291.841 588.506,-291.841"/>
<text text-anchor="middle" x="695.506" y="-449.241" font-family="Times Roman,serif" font-size="14.00">UsersController</text>
<polyline fill="none" stroke="black" points="576.506,-439.841 814.506,-439.841 "/>
<text text-anchor="start" x="584.506" y="-423.241" font-family="Times Roman,serif" font-size="14.00">_one_time_conditions_valid_56?</text>
<text text-anchor="start" x="584.506" y="-405.241" font-family="Times Roman,serif" font-size="14.00">destroy</text>
<text text-anchor="start" x="584.506" y="-387.241" font-family="Times Roman,serif" font-size="14.00">index</text>
<text text-anchor="start" x="584.506" y="-369.241" font-family="Times Roman,serif" font-size="14.00">show</text>
<text text-anchor="start" x="584.506" y="-351.241" font-family="Times Roman,serif" font-size="14.00">update</text>
<polyline fill="none" stroke="black" points="576.506,-341.841 814.506,-341.841 "/>
<polyline fill="none" stroke="black" points="576.506,-317.841 814.506,-317.841 "/>
<text text-anchor="start" x="584.506" y="-301.241" font-family="Times Roman,serif" font-size="14.00">_layout</text>
</g>
<!-- ApplicationController&#45;&gt;UsersController -->
<g id="edge2" class="edge"><title>ApplicationController&#45;&gt;UsersController</title>
<path fill="none" stroke="black" d="M504.393,-378.395C527.966,-378.45 552.715,-378.508 576.295,-378.563"/>
</g>
<!-- SitesController -->
<g id="node4" class="node"><title>SitesController</title>
<polyline fill="none" stroke="black" points="300.883,-1.5 514.883,-1.5 "/>
<path fill="none" stroke="black" d="M514.883,-1.5C520.883,-1.5 526.883,-7.5 526.883,-13.5"/>
<polyline fill="none" stroke="black" points="526.883,-13.5 526.883,-235.5 "/>
<path fill="none" stroke="black" d="M526.883,-235.5C526.883,-241.5 520.883,-247.5 514.883,-247.5"/>
<polyline fill="none" stroke="black" points="514.883,-247.5 300.883,-247.5 "/>
<path fill="none" stroke="black" d="M300.883,-247.5C294.883,-247.5 288.883,-241.5 288.883,-235.5"/>
<polyline fill="none" stroke="black" points="288.883,-235.5 288.883,-13.5 "/>
<path fill="none" stroke="black" d="M288.883,-13.5C288.883,-7.5 294.883,-1.5 300.883,-1.5"/>
<text text-anchor="middle" x="407.883" y="-230.9" font-family="Times Roman,serif" font-size="14.00">SitesController</text>
<polyline fill="none" stroke="black" points="288.883,-221.5 526.883,-221.5 "/>
<text text-anchor="start" x="296.883" y="-204.9" font-family="Times Roman,serif" font-size="14.00">_callback_before_93</text>
<text text-anchor="start" x="296.883" y="-186.9" font-family="Times Roman,serif" font-size="14.00">_one_time_conditions_valid_94?</text>
<text text-anchor="start" x="296.883" y="-168.9" font-family="Times Roman,serif" font-size="14.00">create</text>
<text text-anchor="start" x="296.883" y="-150.9" font-family="Times Roman,serif" font-size="14.00">destroy</text>
<text text-anchor="start" x="296.883" y="-132.9" font-family="Times Roman,serif" font-size="14.00">edit</text>
<text text-anchor="start" x="296.883" y="-114.9" font-family="Times Roman,serif" font-size="14.00">index</text>
<text text-anchor="start" x="296.883" y="-96.9" font-family="Times Roman,serif" font-size="14.00">new</text>
<text text-anchor="start" x="296.883" y="-78.9" font-family="Times Roman,serif" font-size="14.00">show</text>
<text text-anchor="start" x="296.883" y="-60.9" font-family="Times Roman,serif" font-size="14.00">update</text>
<polyline fill="none" stroke="black" points="288.883,-51.5 526.883,-51.5 "/>
<polyline fill="none" stroke="black" points="288.883,-27.5 526.883,-27.5 "/>
<text text-anchor="start" x="296.883" y="-10.9" font-family="Times Roman,serif" font-size="14.00">_layout</text>
</g>
<!-- ApplicationController&#45;&gt;SitesController -->
<g id="edge4" class="edge"><title>ApplicationController&#45;&gt;SitesController</title>
<path fill="none" stroke="black" d="M392.312,-299.954C393.785,-283.362 395.373,-265.46 396.953,-247.655"/>
</g>
<!-- FeedEntriesController -->
<g id="node5" class="node"><title>FeedEntriesController</title>
<polyline fill="none" stroke="black" points="53.2995,-465.031 196.299,-465.031 "/>
<path fill="none" stroke="black" d="M196.299,-465.031C202.299,-465.031 208.299,-471.031 208.299,-477.031"/>
<polyline fill="none" stroke="black" points="208.299,-477.031 208.299,-663.031 "/>
<path fill="none" stroke="black" d="M208.299,-663.031C208.299,-669.031 202.299,-675.031 196.299,-675.031"/>
<polyline fill="none" stroke="black" points="196.299,-675.031 53.2995,-675.031 "/>
<path fill="none" stroke="black" d="M53.2995,-675.031C47.2995,-675.031 41.2995,-669.031 41.2995,-663.031"/>
<polyline fill="none" stroke="black" points="41.2995,-663.031 41.2995,-477.031 "/>
<path fill="none" stroke="black" d="M41.2995,-477.031C41.2995,-471.031 47.2995,-465.031 53.2995,-465.031"/>
<text text-anchor="middle" x="124.799" y="-658.431" font-family="Times Roman,serif" font-size="14.00">FeedEntriesController</text>
<polyline fill="none" stroke="black" points="41.2995,-649.031 208.299,-649.031 "/>
<text text-anchor="start" x="49.2995" y="-632.431" font-family="Times Roman,serif" font-size="14.00">create</text>
<text text-anchor="start" x="49.2995" y="-614.431" font-family="Times Roman,serif" font-size="14.00">destroy</text>
<text text-anchor="start" x="49.2995" y="-596.431" font-family="Times Roman,serif" font-size="14.00">edit</text>
<text text-anchor="start" x="49.2995" y="-578.431" font-family="Times Roman,serif" font-size="14.00">index</text>
<text text-anchor="start" x="49.2995" y="-560.431" font-family="Times Roman,serif" font-size="14.00">new</text>
<text text-anchor="start" x="49.2995" y="-542.431" font-family="Times Roman,serif" font-size="14.00">show</text>
<text text-anchor="start" x="49.2995" y="-524.431" font-family="Times Roman,serif" font-size="14.00">update</text>
<polyline fill="none" stroke="black" points="41.2995,-515.031 208.299,-515.031 "/>
<polyline fill="none" stroke="black" points="41.2995,-491.031 208.299,-491.031 "/>
<text text-anchor="start" x="49.2995" y="-474.431" font-family="Times Roman,serif" font-size="14.00">_layout</text>
</g>
<!-- ApplicationController&#45;&gt;FeedEntriesController -->
<g id="edge6" class="edge"><title>ApplicationController&#45;&gt;FeedEntriesController</title>
<path fill="none" stroke="black" d="M279.389,-456.176C255.718,-473.61 230.936,-491.861 208.322,-508.516"/>
</g>
<!-- ContentController -->
<g id="node6" class="node"><title>ContentController</title>
<polyline fill="none" stroke="black" points="598.793,-547.908 812.793,-547.908 "/>
<path fill="none" stroke="black" d="M812.793,-547.908C818.793,-547.908 824.793,-553.908 824.793,-559.908"/>
<polyline fill="none" stroke="black" points="824.793,-559.908 824.793,-691.908 "/>
<path fill="none" stroke="black" d="M824.793,-691.908C824.793,-697.908 818.793,-703.908 812.793,-703.908"/>
<polyline fill="none" stroke="black" points="812.793,-703.908 598.793,-703.908 "/>
<path fill="none" stroke="black" d="M598.793,-703.908C592.793,-703.908 586.793,-697.908 586.793,-691.908"/>
<polyline fill="none" stroke="black" points="586.793,-691.908 586.793,-559.908 "/>
<path fill="none" stroke="black" d="M586.793,-559.908C586.793,-553.908 592.793,-547.908 598.793,-547.908"/>
<text text-anchor="middle" x="705.793" y="-687.308" font-family="Times Roman,serif" font-size="14.00">ContentController</text>
<polyline fill="none" stroke="black" points="586.793,-677.908 824.793,-677.908 "/>
<text text-anchor="start" x="594.793" y="-661.308" font-family="Times Roman,serif" font-size="14.00">_one_time_conditions_valid_96?</text>
<text text-anchor="start" x="594.793" y="-643.308" font-family="Times Roman,serif" font-size="14.00">gold</text>
<text text-anchor="start" x="594.793" y="-625.308" font-family="Times Roman,serif" font-size="14.00">platinum</text>
<text text-anchor="start" x="594.793" y="-607.308" font-family="Times Roman,serif" font-size="14.00">silver</text>
<polyline fill="none" stroke="black" points="586.793,-597.908 824.793,-597.908 "/>
<polyline fill="none" stroke="black" points="586.793,-573.908 824.793,-573.908 "/>
<text text-anchor="start" x="594.793" y="-557.308" font-family="Times Roman,serif" font-size="14.00">_layout</text>
</g>
<!-- ApplicationController&#45;&gt;ContentController -->
<g id="edge8" class="edge"><title>ApplicationController&#45;&gt;ContentController</title>
<path fill="none" stroke="black" d="M486.318,-456.179C524.106,-485.402 567.015,-518.586 604.808,-547.812"/>
</g>
<!-- HomeController -->
<g id="node8" class="node"><title>HomeController</title>
<polyline fill="none" stroke="black" points="358.036,-581.939 459.036,-581.939 "/>
<path fill="none" stroke="black" d="M459.036,-581.939C465.036,-581.939 471.036,-587.939 471.036,-593.939"/>
<polyline fill="none" stroke="black" points="471.036,-593.939 471.036,-669.939 "/>
<path fill="none" stroke="black" d="M471.036,-669.939C471.036,-675.939 465.036,-681.939 459.036,-681.939"/>
<polyline fill="none" stroke="black" points="459.036,-681.939 358.036,-681.939 "/>
<path fill="none" stroke="black" d="M358.036,-681.939C352.036,-681.939 346.036,-675.939 346.036,-669.939"/>
<polyline fill="none" stroke="black" points="346.036,-669.939 346.036,-593.939 "/>
<path fill="none" stroke="black" d="M346.036,-593.939C346.036,-587.939 352.036,-581.939 358.036,-581.939"/>
<text text-anchor="middle" x="408.536" y="-665.339" font-family="Times Roman,serif" font-size="14.00">HomeController</text>
<polyline fill="none" stroke="black" points="346.036,-655.939 471.036,-655.939 "/>
<polyline fill="none" stroke="black" points="346.036,-631.939 471.036,-631.939 "/>
<polyline fill="none" stroke="black" points="346.036,-607.939 471.036,-607.939 "/>
<text text-anchor="start" x="354.036" y="-591.339" font-family="Times Roman,serif" font-size="14.00">_layout</text>
</g>
<!-- ApplicationController&#45;&gt;HomeController -->
<g id="edge10" class="edge"><title>ApplicationController&#45;&gt;HomeController</title>
<path fill="none" stroke="black" d="M392.513,-456.343C396.235,-497.128 400.678,-545.82 403.94,-581.573"/>
</g>
<!-- ClassifiedsController -->
<g id="node9" class="node"><title>ClassifiedsController</title>
<polyline fill="none" stroke="black" points="13,-64.1154 236,-64.1154 "/>
<path fill="none" stroke="black" d="M236,-64.1154C242,-64.1154 248,-70.1154 248,-76.1154"/>
<polyline fill="none" stroke="black" points="248,-76.1154 248,-298.115 "/>
<path fill="none" stroke="black" d="M248,-298.115C248,-304.115 242,-310.115 236,-310.115"/>
<polyline fill="none" stroke="black" points="236,-310.115 13,-310.115 "/>
<path fill="none" stroke="black" d="M13,-310.115C7,-310.115 1,-304.115 1,-298.115"/>
<polyline fill="none" stroke="black" points="1,-298.115 1,-76.1154 "/>
<path fill="none" stroke="black" d="M1,-76.1154C1,-70.1154 7,-64.1154 13,-64.1154"/>
<text text-anchor="middle" x="124.5" y="-293.515" font-family="Times Roman,serif" font-size="14.00">ClassifiedsController</text>
<polyline fill="none" stroke="black" points="1,-284.115 248,-284.115 "/>
<text text-anchor="start" x="9" y="-267.515" font-family="Times Roman,serif" font-size="14.00">_callback_before_107</text>
<text text-anchor="start" x="9" y="-249.515" font-family="Times Roman,serif" font-size="14.00">_one_time_conditions_valid_108?</text>
<text text-anchor="start" x="9" y="-231.515" font-family="Times Roman,serif" font-size="14.00">create</text>
<text text-anchor="start" x="9" y="-213.515" font-family="Times Roman,serif" font-size="14.00">destroy</text>
<text text-anchor="start" x="9" y="-195.515" font-family="Times Roman,serif" font-size="14.00">edit</text>
<text text-anchor="start" x="9" y="-177.515" font-family="Times Roman,serif" font-size="14.00">index</text>
<text text-anchor="start" x="9" y="-159.515" font-family="Times Roman,serif" font-size="14.00">new</text>
<text text-anchor="start" x="9" y="-141.515" font-family="Times Roman,serif" font-size="14.00">show</text>
<text text-anchor="start" x="9" y="-123.515" font-family="Times Roman,serif" font-size="14.00">update</text>
<polyline fill="none" stroke="black" points="1,-114.115 248,-114.115 "/>
<polyline fill="none" stroke="black" points="1,-90.1154 248,-90.1154 "/>
<text text-anchor="start" x="9" y="-73.5154" font-family="Times Roman,serif" font-size="14.00">_layout</text>
</g>
<!-- ApplicationController&#45;&gt;ClassifiedsController -->
<g id="edge12" class="edge"><title>ApplicationController&#45;&gt;ClassifiedsController</title>
<path fill="none" stroke="black" d="M278.515,-299.878C268.524,-292.563 258.343,-285.109 248.216,-277.694"/>
</g>
<!-- SubscribersController -->
<g id="node10" class="node"><title>SubscribersController</title>
<polyline fill="none" stroke="black" points="593.986,-8.40153 816.986,-8.40153 "/>
<path fill="none" stroke="black" d="M816.986,-8.40153C822.986,-8.40153 828.986,-14.4015 828.986,-20.4015"/>
<polyline fill="none" stroke="black" points="828.986,-20.4015 828.986,-242.402 "/>
<path fill="none" stroke="black" d="M828.986,-242.402C828.986,-248.402 822.986,-254.402 816.986,-254.402"/>
<polyline fill="none" stroke="black" points="816.986,-254.402 593.986,-254.402 "/>
<path fill="none" stroke="black" d="M593.986,-254.402C587.986,-254.402 581.986,-248.402 581.986,-242.402"/>
<polyline fill="none" stroke="black" points="581.986,-242.402 581.986,-20.4015 "/>
<path fill="none" stroke="black" d="M581.986,-20.4015C581.986,-14.4015 587.986,-8.40153 593.986,-8.40153"/>
<text text-anchor="middle" x="705.486" y="-237.802" font-family="Times Roman,serif" font-size="14.00">SubscribersController</text>
<polyline fill="none" stroke="black" points="581.986,-228.402 828.986,-228.402 "/>
<text text-anchor="start" x="589.986" y="-211.802" font-family="Times Roman,serif" font-size="14.00">_callback_before_113</text>
<text text-anchor="start" x="589.986" y="-193.802" font-family="Times Roman,serif" font-size="14.00">_one_time_conditions_valid_114?</text>
<text text-anchor="start" x="589.986" y="-175.802" font-family="Times Roman,serif" font-size="14.00">create</text>
<text text-anchor="start" x="589.986" y="-157.802" font-family="Times Roman,serif" font-size="14.00">destroy</text>
<text text-anchor="start" x="589.986" y="-139.802" font-family="Times Roman,serif" font-size="14.00">edit</text>
<text text-anchor="start" x="589.986" y="-121.802" font-family="Times Roman,serif" font-size="14.00">index</text>
<text text-anchor="start" x="589.986" y="-103.802" font-family="Times Roman,serif" font-size="14.00">new</text>
<text text-anchor="start" x="589.986" y="-85.8015" font-family="Times Roman,serif" font-size="14.00">show</text>
<text text-anchor="start" x="589.986" y="-67.8015" font-family="Times Roman,serif" font-size="14.00">update</text>
<polyline fill="none" stroke="black" points="581.986,-58.4015 828.986,-58.4015 "/>
<polyline fill="none" stroke="black" points="581.986,-34.4015 828.986,-34.4015 "/>
<text text-anchor="start" x="589.986" y="-17.8015" font-family="Times Roman,serif" font-size="14.00">_layout</text>
</g>
<!-- ApplicationController&#45;&gt;SubscribersController -->
<g id="edge14" class="edge"><title>ApplicationController&#45;&gt;SubscribersController</title>
<path fill="none" stroke="black" d="M486.66,-300.054C516.883,-276.761 550.353,-250.966 581.837,-226.7"/>
</g>
<!-- RegistrationsController -->
<g id="node7" class="node"><title>RegistrationsController</title>
<polyline fill="none" stroke="black" points="574,-766.5 726,-766.5 "/>
<path fill="none" stroke="black" d="M726,-766.5C732,-766.5 738,-772.5 738,-778.5"/>
<polyline fill="none" stroke="black" points="738,-778.5 738,-910.5 "/>
<path fill="none" stroke="black" d="M738,-910.5C738,-916.5 732,-922.5 726,-922.5"/>
<polyline fill="none" stroke="black" points="726,-922.5 574,-922.5 "/>
<path fill="none" stroke="black" d="M574,-922.5C568,-922.5 562,-916.5 562,-910.5"/>
<polyline fill="none" stroke="black" points="562,-910.5 562,-778.5 "/>
<path fill="none" stroke="black" d="M562,-778.5C562,-772.5 568,-766.5 574,-766.5"/>
<text text-anchor="middle" x="650" y="-905.9" font-family="Times Roman,serif" font-size="14.00">RegistrationsController</text>
<polyline fill="none" stroke="black" points="562,-896.5 738,-896.5 "/>
<text text-anchor="start" x="570" y="-879.9" font-family="Times Roman,serif" font-size="14.00">new</text>
<text text-anchor="start" x="570" y="-861.9" font-family="Times Roman,serif" font-size="14.00">update_card</text>
<text text-anchor="start" x="570" y="-843.9" font-family="Times Roman,serif" font-size="14.00">update_plan</text>
<polyline fill="none" stroke="black" points="562,-834.5 738,-834.5 "/>
<polyline fill="none" stroke="black" points="562,-810.5 738,-810.5 "/>
<text text-anchor="start" x="570" y="-793.9" font-family="Times Roman,serif" font-size="14.00">_layout</text>
<text text-anchor="start" x="570" y="-775.9" font-family="Times Roman,serif" font-size="14.00">build_resource</text>
</g>
</g>
</svg>
