<?xml version="1.0" encoding="UTF-8" standalone="no"?>
<!DOCTYPE svg PUBLIC "-//W3C//DTD SVG 1.1//EN"
 "http://www.w3.org/Graphics/SVG/1.1/DTD/svg11.dtd">
<!-- Generated by graphviz version 2.26.3 (20100126.1600)
 -->
<!-- Title: controllers_diagram Pages: 1 -->
<svg width="1060pt" height="917pt"
 viewBox="0.00 0.00 1060.00 917.00" xmlns="http://www.w3.org/2000/svg" xmlns:xlink="http://www.w3.org/1999/xlink">
<g id="graph1" class="graph" transform="scale(1 1) rotate(0) translate(4 913)">
<title>controllers_diagram</title>
<polygon fill="white" stroke="white" points="-4,5 -4,-913 1057,-913 1057,5 -4,5"/>
<!-- _diagram_info -->
<g id="node1" class="node"><title>_diagram_info</title>
<text text-anchor="start" x="809" y="-828.3" font-family="Times Roman,serif" font-size="13.00">Controllers diagram</text>
<text text-anchor="start" x="809" y="-811.3" font-family="Times Roman,serif" font-size="13.00">Date: Feb 01 2013 &#45; 20:51</text>
<text text-anchor="start" x="809" y="-794.3" font-family="Times Roman,serif" font-size="13.00">Migration version: 20130202014110</text>
<text text-anchor="start" x="809" y="-777.3" font-family="Times Roman,serif" font-size="13.00">Generated by RailRoady 1.1.0</text>
<text text-anchor="start" x="809" y="-760.3" font-family="Times Roman,serif" font-size="13.00">http://railroady.prestonlee.com</text>
</g>
<!-- ApplicationController -->
<g id="node2" class="node"><title>ApplicationController</title>
<polyline fill="none" stroke="black" points="275.373,-281 489.373,-281 "/>
<path fill="none" stroke="black" d="M489.373,-281C495.373,-281 501.373,-287 501.373,-293"/>
<polyline fill="none" stroke="black" points="501.373,-293 501.373,-425 "/>
<path fill="none" stroke="black" d="M501.373,-425C501.373,-431 495.373,-437 489.373,-437"/>
<polyline fill="none" stroke="black" points="489.373,-437 275.373,-437 "/>
<path fill="none" stroke="black" d="M275.373,-437C269.373,-437 263.373,-431 263.373,-425"/>
<polyline fill="none" stroke="black" points="263.373,-425 263.373,-293 "/>
<path fill="none" stroke="black" d="M263.373,-293C263.373,-287 269.373,-281 275.373,-281"/>
<text text-anchor="middle" x="382.373" y="-420.4" font-family="Times Roman,serif" font-size="14.00">ApplicationController</text>
<polyline fill="none" stroke="black" points="263.373,-411 501.373,-411 "/>
<text text-anchor="start" x="271.373" y="-394.4" font-family="Times Roman,serif" font-size="14.00">_one_time_conditions_valid_52?</text>
<text text-anchor="start" x="271.373" y="-376.4" font-family="Times Roman,serif" font-size="14.00">_one_time_conditions_valid_54?</text>
<text text-anchor="start" x="271.373" y="-358.4" font-family="Times Roman,serif" font-size="14.00">after_sign_in_path_for</text>
<text text-anchor="start" x="271.373" y="-340.4" font-family="Times Roman,serif" font-size="14.00">meta_defaults</text>
<polyline fill="none" stroke="black" points="263.373,-331 501.373,-331 "/>
<polyline fill="none" stroke="black" points="263.373,-307 501.373,-307 "/>
<text text-anchor="start" x="271.373" y="-290.4" font-family="Times Roman,serif" font-size="14.00">_layout</text>
</g>
<!-- UsersController -->
<g id="node3" class="node"><title>UsersController</title>
<polyline fill="none" stroke="black" points="578.193,-272.453 792.193,-272.453 "/>
<path fill="none" stroke="black" d="M792.193,-272.453C798.193,-272.453 804.193,-278.453 804.193,-284.453"/>
<polyline fill="none" stroke="black" points="804.193,-284.453 804.193,-434.453 "/>
<path fill="none" stroke="black" d="M804.193,-434.453C804.193,-440.453 798.193,-446.453 792.193,-446.453"/>
<polyline fill="none" stroke="black" points="792.193,-446.453 578.193,-446.453 "/>
<path fill="none" stroke="black" d="M578.193,-446.453C572.193,-446.453 566.193,-440.453 566.193,-434.453"/>
<polyline fill="none" stroke="black" points="566.193,-434.453 566.193,-284.453 "/>
<path fill="none" stroke="black" d="M566.193,-284.453C566.193,-278.453 572.193,-272.453 578.193,-272.453"/>
<text text-anchor="middle" x="685.193" y="-429.853" font-family="Times Roman,serif" font-size="14.00">UsersController</text>
<polyline fill="none" stroke="black" points="566.193,-420.453 804.193,-420.453 "/>
<text text-anchor="start" x="574.193" y="-403.853" font-family="Times Roman,serif" font-size="14.00">_one_time_conditions_valid_56?</text>
<text text-anchor="start" x="574.193" y="-385.853" font-family="Times Roman,serif" font-size="14.00">destroy</text>
<text text-anchor="start" x="574.193" y="-367.853" font-family="Times Roman,serif" font-size="14.00">index</text>
<text text-anchor="start" x="574.193" y="-349.853" font-family="Times Roman,serif" font-size="14.00">show</text>
<text text-anchor="start" x="574.193" y="-331.853" font-family="Times Roman,serif" font-size="14.00">update</text>
<polyline fill="none" stroke="black" points="566.193,-322.453 804.193,-322.453 "/>
<polyline fill="none" stroke="black" points="566.193,-298.453 804.193,-298.453 "/>
<text text-anchor="start" x="574.193" y="-281.853" font-family="Times Roman,serif" font-size="14.00">_layout</text>
</g>
<!-- ApplicationController&#45;&gt;UsersController -->
<g id="edge2" class="edge"><title>ApplicationController&#45;&gt;UsersController</title>
<path fill="none" stroke="black" d="M501.621,-359.178C522.806,-359.21 544.872,-359.243 566.054,-359.275"/>
</g>
<!-- SitesController -->
<g id="node4" class="node"><title>SitesController</title>
<polyline fill="none" stroke="black" points="351.153,-13.1713 446.153,-13.1713 "/>
<path fill="none" stroke="black" d="M446.153,-13.1713C452.153,-13.1713 458.153,-19.1713 458.153,-25.1713"/>
<polyline fill="none" stroke="black" points="458.153,-25.1713 458.153,-211.171 "/>
<path fill="none" stroke="black" d="M458.153,-211.171C458.153,-217.171 452.153,-223.171 446.153,-223.171"/>
<polyline fill="none" stroke="black" points="446.153,-223.171 351.153,-223.171 "/>
<path fill="none" stroke="black" d="M351.153,-223.171C345.153,-223.171 339.153,-217.171 339.153,-211.171"/>
<polyline fill="none" stroke="black" points="339.153,-211.171 339.153,-25.1713 "/>
<path fill="none" stroke="black" d="M339.153,-25.1713C339.153,-19.1713 345.153,-13.1713 351.153,-13.1713"/>
<text text-anchor="middle" x="398.653" y="-206.571" font-family="Times Roman,serif" font-size="14.00">SitesController</text>
<polyline fill="none" stroke="black" points="339.153,-197.171 458.153,-197.171 "/>
<text text-anchor="start" x="347.153" y="-180.571" font-family="Times Roman,serif" font-size="14.00">create</text>
<text text-anchor="start" x="347.153" y="-162.571" font-family="Times Roman,serif" font-size="14.00">destroy</text>
<text text-anchor="start" x="347.153" y="-144.571" font-family="Times Roman,serif" font-size="14.00">edit</text>
<text text-anchor="start" x="347.153" y="-126.571" font-family="Times Roman,serif" font-size="14.00">index</text>
<text text-anchor="start" x="347.153" y="-108.571" font-family="Times Roman,serif" font-size="14.00">new</text>
<text text-anchor="start" x="347.153" y="-90.5713" font-family="Times Roman,serif" font-size="14.00">show</text>
<text text-anchor="start" x="347.153" y="-72.5713" font-family="Times Roman,serif" font-size="14.00">update</text>
<polyline fill="none" stroke="black" points="339.153,-63.1713 458.153,-63.1713 "/>
<polyline fill="none" stroke="black" points="339.153,-39.1713 458.153,-39.1713 "/>
<text text-anchor="start" x="347.153" y="-22.5713" font-family="Times Roman,serif" font-size="14.00">_layout</text>
</g>
<!-- ApplicationController&#45;&gt;SitesController -->
<g id="edge4" class="edge"><title>ApplicationController&#45;&gt;SitesController</title>
<path fill="none" stroke="black" d="M387.659,-280.81C388.894,-262.543 390.229,-242.792 391.529,-223.56"/>
</g>
<!-- FeedEntriesController -->
<g id="node5" class="node"><title>FeedEntriesController</title>
<polyline fill="none" stroke="black" points="48.5664,-435.936 191.566,-435.936 "/>
<path fill="none" stroke="black" d="M191.566,-435.936C197.566,-435.936 203.566,-441.936 203.566,-447.936"/>
<polyline fill="none" stroke="black" points="203.566,-447.936 203.566,-633.936 "/>
<path fill="none" stroke="black" d="M203.566,-633.936C203.566,-639.936 197.566,-645.936 191.566,-645.936"/>
<polyline fill="none" stroke="black" points="191.566,-645.936 48.5664,-645.936 "/>
<path fill="none" stroke="black" d="M48.5664,-645.936C42.5664,-645.936 36.5664,-639.936 36.5664,-633.936"/>
<polyline fill="none" stroke="black" points="36.5664,-633.936 36.5664,-447.936 "/>
<path fill="none" stroke="black" d="M36.5664,-447.936C36.5664,-441.936 42.5664,-435.936 48.5664,-435.936"/>
<text text-anchor="middle" x="120.066" y="-629.336" font-family="Times Roman,serif" font-size="14.00">FeedEntriesController</text>
<polyline fill="none" stroke="black" points="36.5664,-619.936 203.566,-619.936 "/>
<text text-anchor="start" x="44.5664" y="-603.336" font-family="Times Roman,serif" font-size="14.00">create</text>
<text text-anchor="start" x="44.5664" y="-585.336" font-family="Times Roman,serif" font-size="14.00">destroy</text>
<text text-anchor="start" x="44.5664" y="-567.336" font-family="Times Roman,serif" font-size="14.00">edit</text>
<text text-anchor="start" x="44.5664" y="-549.336" font-family="Times Roman,serif" font-size="14.00">index</text>
<text text-anchor="start" x="44.5664" y="-531.336" font-family="Times Roman,serif" font-size="14.00">new</text>
<text text-anchor="start" x="44.5664" y="-513.336" font-family="Times Roman,serif" font-size="14.00">show</text>
<text text-anchor="start" x="44.5664" y="-495.336" font-family="Times Roman,serif" font-size="14.00">update</text>
<polyline fill="none" stroke="black" points="36.5664,-485.936 203.566,-485.936 "/>
<polyline fill="none" stroke="black" points="36.5664,-461.936 203.566,-461.936 "/>
<text text-anchor="start" x="44.5664" y="-445.336" font-family="Times Roman,serif" font-size="14.00">_layout</text>
</g>
<!-- ApplicationController&#45;&gt;FeedEntriesController -->
<g id="edge6" class="edge"><title>ApplicationController&#45;&gt;FeedEntriesController</title>
<path fill="none" stroke="black" d="M269.609,-437.213C247.531,-452.527 224.744,-468.332 203.817,-482.847"/>
</g>
<!-- ContentController -->
<g id="node6" class="node"><title>ContentController</title>
<polyline fill="none" stroke="black" points="584.595,-516.107 798.595,-516.107 "/>
<path fill="none" stroke="black" d="M798.595,-516.107C804.595,-516.107 810.595,-522.107 810.595,-528.107"/>
<polyline fill="none" stroke="black" points="810.595,-528.107 810.595,-660.107 "/>
<path fill="none" stroke="black" d="M810.595,-660.107C810.595,-666.107 804.595,-672.107 798.595,-672.107"/>
<polyline fill="none" stroke="black" points="798.595,-672.107 584.595,-672.107 "/>
<path fill="none" stroke="black" d="M584.595,-672.107C578.595,-672.107 572.595,-666.107 572.595,-660.107"/>
<polyline fill="none" stroke="black" points="572.595,-660.107 572.595,-528.107 "/>
<path fill="none" stroke="black" d="M572.595,-528.107C572.595,-522.107 578.595,-516.107 584.595,-516.107"/>
<text text-anchor="middle" x="691.595" y="-655.507" font-family="Times Roman,serif" font-size="14.00">ContentController</text>
<polyline fill="none" stroke="black" points="572.595,-646.107 810.595,-646.107 "/>
<text text-anchor="start" x="580.595" y="-629.507" font-family="Times Roman,serif" font-size="14.00">_one_time_conditions_valid_58?</text>
<text text-anchor="start" x="580.595" y="-611.507" font-family="Times Roman,serif" font-size="14.00">gold</text>
<text text-anchor="start" x="580.595" y="-593.507" font-family="Times Roman,serif" font-size="14.00">platinum</text>
<text text-anchor="start" x="580.595" y="-575.507" font-family="Times Roman,serif" font-size="14.00">silver</text>
<polyline fill="none" stroke="black" points="572.595,-566.107 810.595,-566.107 "/>
<polyline fill="none" stroke="black" points="572.595,-542.107 810.595,-542.107 "/>
<text text-anchor="start" x="580.595" y="-525.507" font-family="Times Roman,serif" font-size="14.00">_layout</text>
</g>
<!-- ApplicationController&#45;&gt;ContentController -->
<g id="edge8" class="edge"><title>ApplicationController&#45;&gt;ContentController</title>
<path fill="none" stroke="black" d="M485.339,-437.287C518.632,-462.6 555.535,-490.658 588.815,-515.961"/>
</g>
<!-- HomeController -->
<g id="node8" class="node"><title>HomeController</title>
<polyline fill="none" stroke="black" points="348.259,-549.926 449.259,-549.926 "/>
<path fill="none" stroke="black" d="M449.259,-549.926C455.259,-549.926 461.259,-555.926 461.259,-561.926"/>
<polyline fill="none" stroke="black" points="461.259,-561.926 461.259,-637.926 "/>
<path fill="none" stroke="black" d="M461.259,-637.926C461.259,-643.926 455.259,-649.926 449.259,-649.926"/>
<polyline fill="none" stroke="black" points="449.259,-649.926 348.259,-649.926 "/>
<path fill="none" stroke="black" d="M348.259,-649.926C342.259,-649.926 336.259,-643.926 336.259,-637.926"/>
<polyline fill="none" stroke="black" points="336.259,-637.926 336.259,-561.926 "/>
<path fill="none" stroke="black" d="M336.259,-561.926C336.259,-555.926 342.259,-549.926 348.259,-549.926"/>
<text text-anchor="middle" x="398.759" y="-633.326" font-family="Times Roman,serif" font-size="14.00">HomeController</text>
<polyline fill="none" stroke="black" points="336.259,-623.926 461.259,-623.926 "/>
<polyline fill="none" stroke="black" points="336.259,-599.926 461.259,-599.926 "/>
<polyline fill="none" stroke="black" points="336.259,-575.926 461.259,-575.926 "/>
<text text-anchor="start" x="344.259" y="-559.326" font-family="Times Roman,serif" font-size="14.00">_layout</text>
</g>
<!-- ApplicationController&#45;&gt;HomeController -->
<g id="edge10" class="edge"><title>ApplicationController&#45;&gt;HomeController</title>
<path fill="none" stroke="black" d="M387.693,-437.222C390.207,-474.182 393.134,-517.218 395.346,-549.742"/>
</g>
<!-- ClassifiedsController -->
<g id="node9" class="node"><title>ClassifiedsController</title>
<polyline fill="none" stroke="black" points="13,-54.3899 227,-54.3899 "/>
<path fill="none" stroke="black" d="M227,-54.3899C233,-54.3899 239,-60.3899 239,-66.3899"/>
<polyline fill="none" stroke="black" points="239,-66.3899 239,-288.39 "/>
<path fill="none" stroke="black" d="M239,-288.39C239,-294.39 233,-300.39 227,-300.39"/>
<polyline fill="none" stroke="black" points="227,-300.39 13,-300.39 "/>
<path fill="none" stroke="black" d="M13,-300.39C7,-300.39 1,-294.39 1,-288.39"/>
<polyline fill="none" stroke="black" points="1,-288.39 1,-66.3899 "/>
<path fill="none" stroke="black" d="M1,-66.3899C1,-60.3899 7,-54.3899 13,-54.3899"/>
<text text-anchor="middle" x="120" y="-283.79" font-family="Times Roman,serif" font-size="14.00">ClassifiedsController</text>
<polyline fill="none" stroke="black" points="1,-274.39 239,-274.39 "/>
<text text-anchor="start" x="9" y="-257.79" font-family="Times Roman,serif" font-size="14.00">_callback_before_93</text>
<text text-anchor="start" x="9" y="-239.79" font-family="Times Roman,serif" font-size="14.00">_one_time_conditions_valid_94?</text>
<text text-anchor="start" x="9" y="-221.79" font-family="Times Roman,serif" font-size="14.00">create</text>
<text text-anchor="start" x="9" y="-203.79" font-family="Times Roman,serif" font-size="14.00">destroy</text>
<text text-anchor="start" x="9" y="-185.79" font-family="Times Roman,serif" font-size="14.00">edit</text>
<text text-anchor="start" x="9" y="-167.79" font-family="Times Roman,serif" font-size="14.00">index</text>
<text text-anchor="start" x="9" y="-149.79" font-family="Times Roman,serif" font-size="14.00">new</text>
<text text-anchor="start" x="9" y="-131.79" font-family="Times Roman,serif" font-size="14.00">show</text>
<text text-anchor="start" x="9" y="-113.79" font-family="Times Roman,serif" font-size="14.00">update</text>
<polyline fill="none" stroke="black" points="1,-104.39 239,-104.39 "/>
<polyline fill="none" stroke="black" points="1,-80.3899 239,-80.3899 "/>
<text text-anchor="start" x="9" y="-63.7899" font-family="Times Roman,serif" font-size="14.00">_layout</text>
</g>
<!-- ApplicationController&#45;&gt;ClassifiedsController -->
<g id="edge12" class="edge"><title>ApplicationController&#45;&gt;ClassifiedsController</title>
<path fill="none" stroke="black" d="M269.581,-280.927C259.581,-274.005 249.435,-266.982 239.382,-260.024"/>
</g>
<!-- SubscribersController -->
<g id="node10" class="node"><title>SubscribersController</title>
<polyline fill="none" stroke="black" points="580.058,-1.5 803.058,-1.5 "/>
<path fill="none" stroke="black" d="M803.058,-1.5C809.058,-1.5 815.058,-7.5 815.058,-13.5"/>
<polyline fill="none" stroke="black" points="815.058,-13.5 815.058,-235.5 "/>
<path fill="none" stroke="black" d="M815.058,-235.5C815.058,-241.5 809.058,-247.5 803.058,-247.5"/>
<polyline fill="none" stroke="black" points="803.058,-247.5 580.058,-247.5 "/>
<path fill="none" stroke="black" d="M580.058,-247.5C574.058,-247.5 568.058,-241.5 568.058,-235.5"/>
<polyline fill="none" stroke="black" points="568.058,-235.5 568.058,-13.5 "/>
<path fill="none" stroke="black" d="M568.058,-13.5C568.058,-7.5 574.058,-1.5 580.058,-1.5"/>
<text text-anchor="middle" x="691.558" y="-230.9" font-family="Times Roman,serif" font-size="14.00">SubscribersController</text>
<polyline fill="none" stroke="black" points="568.058,-221.5 815.058,-221.5 "/>
<text text-anchor="start" x="576.058" y="-204.9" font-family="Times Roman,serif" font-size="14.00">_callback_before_99</text>
<text text-anchor="start" x="576.058" y="-186.9" font-family="Times Roman,serif" font-size="14.00">_one_time_conditions_valid_100?</text>
<text text-anchor="start" x="576.058" y="-168.9" font-family="Times Roman,serif" font-size="14.00">create</text>
<text text-anchor="start" x="576.058" y="-150.9" font-family="Times Roman,serif" font-size="14.00">destroy</text>
<text text-anchor="start" x="576.058" y="-132.9" font-family="Times Roman,serif" font-size="14.00">edit</text>
<text text-anchor="start" x="576.058" y="-114.9" font-family="Times Roman,serif" font-size="14.00">index</text>
<text text-anchor="start" x="576.058" y="-96.9" font-family="Times Roman,serif" font-size="14.00">new</text>
<text text-anchor="start" x="576.058" y="-78.9" font-family="Times Roman,serif" font-size="14.00">show</text>
<text text-anchor="start" x="576.058" y="-60.9" font-family="Times Roman,serif" font-size="14.00">update</text>
<polyline fill="none" stroke="black" points="568.058,-51.5 815.058,-51.5 "/>
<polyline fill="none" stroke="black" points="568.058,-27.5 815.058,-27.5 "/>
<text text-anchor="start" x="576.058" y="-10.9" font-family="Times Roman,serif" font-size="14.00">_layout</text>
</g>
<!-- ApplicationController&#45;&gt;SubscribersController -->
<g id="edge14" class="edge"><title>ApplicationController&#45;&gt;SubscribersController</title>
<path fill="none" stroke="black" d="M485.327,-280.915C511.765,-260.863 540.48,-239.085 567.848,-218.327"/>
</g>
<!-- RegistrationsController -->
<g id="node7" class="node"><title>RegistrationsController</title>
<polyline fill="none" stroke="black" points="563,-751.5 715,-751.5 "/>
<path fill="none" stroke="black" d="M715,-751.5C721,-751.5 727,-757.5 727,-763.5"/>
<polyline fill="none" stroke="black" points="727,-763.5 727,-895.5 "/>
<path fill="none" stroke="black" d="M727,-895.5C727,-901.5 721,-907.5 715,-907.5"/>
<polyline fill="none" stroke="black" points="715,-907.5 563,-907.5 "/>
<path fill="none" stroke="black" d="M563,-907.5C557,-907.5 551,-901.5 551,-895.5"/>
<polyline fill="none" stroke="black" points="551,-895.5 551,-763.5 "/>
<path fill="none" stroke="black" d="M551,-763.5C551,-757.5 557,-751.5 563,-751.5"/>
<text text-anchor="middle" x="639" y="-890.9" font-family="Times Roman,serif" font-size="14.00">RegistrationsController</text>
<polyline fill="none" stroke="black" points="551,-881.5 727,-881.5 "/>
<text text-anchor="start" x="559" y="-864.9" font-family="Times Roman,serif" font-size="14.00">new</text>
<text text-anchor="start" x="559" y="-846.9" font-family="Times Roman,serif" font-size="14.00">update_card</text>
<text text-anchor="start" x="559" y="-828.9" font-family="Times Roman,serif" font-size="14.00">update_plan</text>
<polyline fill="none" stroke="black" points="551,-819.5 727,-819.5 "/>
<polyline fill="none" stroke="black" points="551,-795.5 727,-795.5 "/>
<text text-anchor="start" x="559" y="-778.9" font-family="Times Roman,serif" font-size="14.00">_layout</text>
<text text-anchor="start" x="559" y="-760.9" font-family="Times Roman,serif" font-size="14.00">build_resource</text>
</g>
</g>
</svg>
