<?xml version="1.0" encoding="UTF-8" standalone="no"?>
<!DOCTYPE svg PUBLIC "-//W3C//DTD SVG 1.1//EN"
 "http://www.w3.org/Graphics/SVG/1.1/DTD/svg11.dtd">
<!-- Generated by graphviz version 2.26.3 (20100126.1600)
 -->
<!-- Title: models_diagram Pages: 1 -->
<svg width="1041pt" height="548pt"
 viewBox="0.00 0.00 1041.00 548.00" xmlns="http://www.w3.org/2000/svg" xmlns:xlink="http://www.w3.org/1999/xlink">
<g id="graph1" class="graph" transform="scale(1 1) rotate(0) translate(4 544)">
<title>models_diagram</title>
<polygon fill="white" stroke="white" points="-4,5 -4,-544 1038,-544 1038,5 -4,5"/>
<!-- _diagram_info -->
<g id="node1" class="node"><title>_diagram_info</title>
<text text-anchor="start" x="8" y="-462.8" font-family="Times Roman,serif" font-size="13.00">Models diagram</text>
<text text-anchor="start" x="8" y="-445.8" font-family="Times Roman,serif" font-size="13.00">Date: Feb 08 2013 &#45; 21:12</text>
<text text-anchor="start" x="8" y="-428.8" font-family="Times Roman,serif" font-size="13.00">Migration version: 20130208025355</text>
<text text-anchor="start" x="8" y="-411.8" font-family="Times Roman,serif" font-size="13.00">Generated by RailRoady 1.1.0</text>
<text text-anchor="start" x="8" y="-394.8" font-family="Times Roman,serif" font-size="13.00">http://railroady.prestonlee.com</text>
</g>
<!-- Role -->
<g id="node2" class="node"><title>Role</title>
<polyline fill="none" stroke="black" points="279.5,-361 420.5,-361 "/>
<path fill="none" stroke="black" d="M420.5,-361C426.5,-361 432.5,-367 432.5,-373"/>
<polyline fill="none" stroke="black" points="432.5,-373 432.5,-491 "/>
<path fill="none" stroke="black" d="M432.5,-491C432.5,-497 426.5,-503 420.5,-503"/>
<polyline fill="none" stroke="black" points="420.5,-503 279.5,-503 "/>
<path fill="none" stroke="black" d="M279.5,-503C273.5,-503 267.5,-497 267.5,-491"/>
<polyline fill="none" stroke="black" points="267.5,-491 267.5,-373 "/>
<path fill="none" stroke="black" d="M267.5,-373C267.5,-367 273.5,-361 279.5,-361"/>
<text text-anchor="middle" x="350" y="-486.4" font-family="Times Roman,serif" font-size="14.00">Role</text>
<polyline fill="none" stroke="black" points="267.5,-477 432.5,-477 "/>
<text text-anchor="start" x="275.5" y="-460.4" font-family="Times Roman,serif" font-size="14.00">id :integer</text>
<text text-anchor="start" x="275.5" y="-442.4" font-family="Times Roman,serif" font-size="14.00">name :string</text>
<text text-anchor="start" x="275.5" y="-424.4" font-family="Times Roman,serif" font-size="14.00">resource_id :integer</text>
<text text-anchor="start" x="275.5" y="-406.4" font-family="Times Roman,serif" font-size="14.00">resource_type :string</text>
<text text-anchor="start" x="275.5" y="-388.4" font-family="Times Roman,serif" font-size="14.00">created_at :datetime</text>
<text text-anchor="start" x="275.5" y="-370.4" font-family="Times Roman,serif" font-size="14.00">updated_at :datetime</text>
</g>
<!-- User -->
<g id="node6" class="node"><title>User</title>
<polyline fill="none" stroke="black" points="235,-1 465,-1 "/>
<path fill="none" stroke="black" d="M465,-1C471,-1 477,-7 477,-13"/>
<polyline fill="none" stroke="black" points="477,-13 477,-275 "/>
<path fill="none" stroke="black" d="M477,-275C477,-281 471,-287 465,-287"/>
<polyline fill="none" stroke="black" points="465,-287 235,-287 "/>
<path fill="none" stroke="black" d="M235,-287C229,-287 223,-281 223,-275"/>
<polyline fill="none" stroke="black" points="223,-275 223,-13 "/>
<path fill="none" stroke="black" d="M223,-13C223,-7 229,-1 235,-1"/>
<text text-anchor="middle" x="350" y="-270.4" font-family="Times Roman,serif" font-size="14.00">User</text>
<polyline fill="none" stroke="black" points="223,-261 477,-261 "/>
<text text-anchor="start" x="231" y="-244.4" font-family="Times Roman,serif" font-size="14.00">id :integer</text>
<text text-anchor="start" x="231" y="-226.4" font-family="Times Roman,serif" font-size="14.00">email :string</text>
<text text-anchor="start" x="231" y="-208.4" font-family="Times Roman,serif" font-size="14.00">encrypted_password :string</text>
<text text-anchor="start" x="231" y="-190.4" font-family="Times Roman,serif" font-size="14.00">reset_password_token :string</text>
<text text-anchor="start" x="231" y="-172.4" font-family="Times Roman,serif" font-size="14.00">reset_password_sent_at :datetime</text>
<text text-anchor="start" x="231" y="-154.4" font-family="Times Roman,serif" font-size="14.00">remember_created_at :datetime</text>
<text text-anchor="start" x="231" y="-136.4" font-family="Times Roman,serif" font-size="14.00">sign_in_count :integer</text>
<text text-anchor="start" x="231" y="-118.4" font-family="Times Roman,serif" font-size="14.00">current_sign_in_at :datetime</text>
<text text-anchor="start" x="231" y="-100.4" font-family="Times Roman,serif" font-size="14.00">last_sign_in_at :datetime</text>
<text text-anchor="start" x="231" y="-82.4" font-family="Times Roman,serif" font-size="14.00">current_sign_in_ip :string</text>
<text text-anchor="start" x="231" y="-64.4" font-family="Times Roman,serif" font-size="14.00">last_sign_in_ip :string</text>
<text text-anchor="start" x="231" y="-46.4" font-family="Times Roman,serif" font-size="14.00">created_at :datetime</text>
<text text-anchor="start" x="231" y="-28.4" font-family="Times Roman,serif" font-size="14.00">updated_at :datetime</text>
<text text-anchor="start" x="231" y="-10.4" font-family="Times Roman,serif" font-size="14.00">name :string</text>
</g>
<!-- Role&#45;&gt;User -->
<g id="edge2" class="edge"><title>Role&#45;&gt;User</title>
<path fill="none" stroke="#cbb972" d="M350,-350.632C350,-333.905 350,-315.777 350,-297.445"/>
<polygon fill="#cbb972" stroke="#cbb972" points="350,-350.809 345.5,-360.809 350,-355.809 350,-360.809 350,-360.809 350,-360.809 350,-355.809 354.5,-360.809 350,-350.809 350,-350.809"/>
<polygon fill="#cbb972" stroke="#cbb972" points="350,-297.247 354.5,-287.247 350,-292.247 350,-287.247 350,-287.247 350,-287.247 350,-292.247 345.5,-287.247 350,-297.247 350,-297.247"/>
</g>
<!-- FeedEntry -->
<g id="node3" class="node"><title>FeedEntry</title>
<polyline fill="none" stroke="black" points="507,-46 657,-46 "/>
<path fill="none" stroke="black" d="M657,-46C663,-46 669,-52 669,-58"/>
<polyline fill="none" stroke="black" points="669,-58 669,-230 "/>
<path fill="none" stroke="black" d="M669,-230C669,-236 663,-242 657,-242"/>
<polyline fill="none" stroke="black" points="657,-242 507,-242 "/>
<path fill="none" stroke="black" d="M507,-242C501,-242 495,-236 495,-230"/>
<polyline fill="none" stroke="black" points="495,-230 495,-58 "/>
<path fill="none" stroke="black" d="M495,-58C495,-52 501,-46 507,-46"/>
<text text-anchor="middle" x="582" y="-225.4" font-family="Times Roman,serif" font-size="14.00">FeedEntry</text>
<polyline fill="none" stroke="black" points="495,-216 669,-216 "/>
<text text-anchor="start" x="503" y="-199.4" font-family="Times Roman,serif" font-size="14.00">id :integer</text>
<text text-anchor="start" x="503" y="-181.4" font-family="Times Roman,serif" font-size="14.00">name :string</text>
<text text-anchor="start" x="503" y="-163.4" font-family="Times Roman,serif" font-size="14.00">summary :text</text>
<text text-anchor="start" x="503" y="-145.4" font-family="Times Roman,serif" font-size="14.00">url :string</text>
<text text-anchor="start" x="503" y="-127.4" font-family="Times Roman,serif" font-size="14.00">published_at :datetime</text>
<text text-anchor="start" x="503" y="-109.4" font-family="Times Roman,serif" font-size="14.00">guid :string</text>
<text text-anchor="start" x="503" y="-91.4" font-family="Times Roman,serif" font-size="14.00">created_at :datetime</text>
<text text-anchor="start" x="503" y="-73.4" font-family="Times Roman,serif" font-size="14.00">updated_at :datetime</text>
<text text-anchor="start" x="503" y="-55.4" font-family="Times Roman,serif" font-size="14.00">site_id :integer</text>
</g>
<!-- Ability -->
<g id="node4" class="node"><title>Ability</title>
<polygon fill="none" stroke="black" points="877,-406 877,-458 937,-458 937,-406 877,-406"/>
<text text-anchor="middle" x="907" y="-441.4" font-family="Times Roman,serif" font-size="14.00">Ability</text>
<polyline fill="none" stroke="black" points="877,-432 937,-432 "/>
<text text-anchor="middle" x="907" y="-415.4" font-family="Times Roman,serif" font-size="14.00"> </text>
</g>
<!-- Classified -->
<g id="node5" class="node"><title>Classified</title>
<polyline fill="none" stroke="black" points="698.5,-55 839.5,-55 "/>
<path fill="none" stroke="black" d="M839.5,-55C845.5,-55 851.5,-61 851.5,-67"/>
<polyline fill="none" stroke="black" points="851.5,-67 851.5,-221 "/>
<path fill="none" stroke="black" d="M851.5,-221C851.5,-227 845.5,-233 839.5,-233"/>
<polyline fill="none" stroke="black" points="839.5,-233 698.5,-233 "/>
<path fill="none" stroke="black" d="M698.5,-233C692.5,-233 686.5,-227 686.5,-221"/>
<polyline fill="none" stroke="black" points="686.5,-221 686.5,-67 "/>
<path fill="none" stroke="black" d="M686.5,-67C686.5,-61 692.5,-55 698.5,-55"/>
<text text-anchor="middle" x="769" y="-216.4" font-family="Times Roman,serif" font-size="14.00">Classified</text>
<polyline fill="none" stroke="black" points="686.5,-207 851.5,-207 "/>
<text text-anchor="start" x="694.5" y="-190.4" font-family="Times Roman,serif" font-size="14.00">id :integer</text>
<text text-anchor="start" x="694.5" y="-172.4" font-family="Times Roman,serif" font-size="14.00">headline :string</text>
<text text-anchor="start" x="694.5" y="-154.4" font-family="Times Roman,serif" font-size="14.00">content :text</text>
<text text-anchor="start" x="694.5" y="-136.4" font-family="Times Roman,serif" font-size="14.00">created_at :datetime</text>
<text text-anchor="start" x="694.5" y="-118.4" font-family="Times Roman,serif" font-size="14.00">updated_at :datetime</text>
<text text-anchor="start" x="694.5" y="-100.4" font-family="Times Roman,serif" font-size="14.00">user_id :integer</text>
<text text-anchor="start" x="694.5" y="-82.4" font-family="Times Roman,serif" font-size="14.00">email :string</text>
<text text-anchor="start" x="694.5" y="-64.4" font-family="Times Roman,serif" font-size="14.00">site_id :integer</text>
</g>
<!-- Site -->
<g id="node7" class="node"><title>Site</title>
<polyline fill="none" stroke="black" points="690.5,-325 847.5,-325 "/>
<path fill="none" stroke="black" d="M847.5,-325C853.5,-325 859.5,-331 859.5,-337"/>
<polyline fill="none" stroke="black" points="859.5,-337 859.5,-527 "/>
<path fill="none" stroke="black" d="M859.5,-527C859.5,-533 853.5,-539 847.5,-539"/>
<polyline fill="none" stroke="black" points="847.5,-539 690.5,-539 "/>
<path fill="none" stroke="black" d="M690.5,-539C684.5,-539 678.5,-533 678.5,-527"/>
<polyline fill="none" stroke="black" points="678.5,-527 678.5,-337 "/>
<path fill="none" stroke="black" d="M678.5,-337C678.5,-331 684.5,-325 690.5,-325"/>
<text text-anchor="middle" x="769" y="-522.4" font-family="Times Roman,serif" font-size="14.00">Site</text>
<polyline fill="none" stroke="black" points="678.5,-513 859.5,-513 "/>
<text text-anchor="start" x="686.5" y="-496.4" font-family="Times Roman,serif" font-size="14.00">id :integer</text>
<text text-anchor="start" x="686.5" y="-478.4" font-family="Times Roman,serif" font-size="14.00">name :string</text>
<text text-anchor="start" x="686.5" y="-460.4" font-family="Times Roman,serif" font-size="14.00">created_at :datetime</text>
<text text-anchor="start" x="686.5" y="-442.4" font-family="Times Roman,serif" font-size="14.00">updated_at :datetime</text>
<text text-anchor="start" x="686.5" y="-424.4" font-family="Times Roman,serif" font-size="14.00">hero_unit :string</text>
<text text-anchor="start" x="686.5" y="-406.4" font-family="Times Roman,serif" font-size="14.00">call_to_subscribe :string</text>
<text text-anchor="start" x="686.5" y="-388.4" font-family="Times Roman,serif" font-size="14.00">side_box_1_title :string</text>
<text text-anchor="start" x="686.5" y="-370.4" font-family="Times Roman,serif" font-size="14.00">side_box_1_text :text</text>
<text text-anchor="start" x="686.5" y="-352.4" font-family="Times Roman,serif" font-size="14.00">side_box_2_title :string</text>
<text text-anchor="start" x="686.5" y="-334.4" font-family="Times Roman,serif" font-size="14.00">side_box_2_text :text</text>
</g>
<!-- Site&#45;&gt;FeedEntry -->
<g id="edge6" class="edge"><title>Site&#45;&gt;FeedEntry</title>
<path fill="none" stroke="#c5dc6c" d="M694.819,-317.753C680.507,-295.711 665.564,-272.697 651.411,-250.9"/>
<ellipse fill="none" stroke="#c5dc6c" cx="697.19" cy="-321.405" rx="4.00002" ry="4.00002"/>
<polygon fill="#c5dc6c" stroke="#c5dc6c" points="651.265,-250.676 649.594,-239.838 648.542,-246.482 645.82,-242.289 645.82,-242.289 645.82,-242.289 648.542,-246.482 642.045,-244.74 651.265,-250.676 651.265,-250.676"/>
</g>
<!-- Site&#45;&gt;Classified -->
<g id="edge8" class="edge"><title>Site&#45;&gt;Classified</title>
<path fill="none" stroke="#f00409" d="M769,-316.604C769,-292.477 769,-267.234 769,-243.733"/>
<ellipse fill="none" stroke="#f00409" cx="769" cy="-320.759" rx="4" ry="4"/>
<polygon fill="#f00409" stroke="#f00409" points="769,-243.423 773.5,-233.423 769,-238.423 769,-233.423 769,-233.423 769,-233.423 769,-238.423 764.5,-233.423 769,-243.423 769,-243.423"/>
</g>
<!-- Subscriber -->
<g id="node8" class="node"><title>Subscriber</title>
<polyline fill="none" stroke="black" points="880.5,-91 1021.5,-91 "/>
<path fill="none" stroke="black" d="M1021.5,-91C1027.5,-91 1033.5,-97 1033.5,-103"/>
<polyline fill="none" stroke="black" points="1033.5,-103 1033.5,-185 "/>
<path fill="none" stroke="black" d="M1033.5,-185C1033.5,-191 1027.5,-197 1021.5,-197"/>
<polyline fill="none" stroke="black" points="1021.5,-197 880.5,-197 "/>
<path fill="none" stroke="black" d="M880.5,-197C874.5,-197 868.5,-191 868.5,-185"/>
<polyline fill="none" stroke="black" points="868.5,-185 868.5,-103 "/>
<path fill="none" stroke="black" d="M868.5,-103C868.5,-97 874.5,-91 880.5,-91"/>
<text text-anchor="middle" x="951" y="-180.4" font-family="Times Roman,serif" font-size="14.00">Subscriber</text>
<polyline fill="none" stroke="black" points="868.5,-171 1033.5,-171 "/>
<text text-anchor="start" x="876.5" y="-154.4" font-family="Times Roman,serif" font-size="14.00">id :integer</text>
<text text-anchor="start" x="876.5" y="-136.4" font-family="Times Roman,serif" font-size="14.00">email :string</text>
<text text-anchor="start" x="876.5" y="-118.4" font-family="Times Roman,serif" font-size="14.00">created_at :datetime</text>
<text text-anchor="start" x="876.5" y="-100.4" font-family="Times Roman,serif" font-size="14.00">updated_at :datetime</text>
</g>
<!-- Site&#45;&gt;Subscriber -->
<g id="edge4" class="edge"><title>Site&#45;&gt;Subscriber</title>
<path fill="none" stroke="#4efab4" d="M841.143,-317.84C865.298,-279.616 891.307,-238.459 911.952,-205.79"/>
<ellipse fill="none" stroke="#4efab4" cx="838.907" cy="-321.378" rx="4.00002" ry="4.00002"/>
<polygon fill="#4efab4" stroke="#4efab4" points="912.011,-205.697 921.157,-199.647 914.682,-201.47 917.353,-197.243 917.353,-197.243 917.353,-197.243 914.682,-201.47 913.549,-194.839 912.011,-205.697 912.011,-205.697"/>
</g>
</g>
</svg>
