<?xml version="1.0" encoding="UTF-8" standalone="no"?>
<!DOCTYPE svg PUBLIC "-//W3C//DTD SVG 1.1//EN"
 "http://www.w3.org/Graphics/SVG/1.1/DTD/svg11.dtd">
<!-- Generated by graphviz version 2.26.3 (20100126.1600)
 -->
<!-- Title: models_diagram Pages: 1 -->
<svg width="756pt" height="176pt"
 viewBox="0.00 0.00 756.00 176.00" xmlns="http://www.w3.org/2000/svg" xmlns:xlink="http://www.w3.org/1999/xlink">
<g id="graph1" class="graph" transform="scale(1 1) rotate(0) translate(4 172)">
<title>models_diagram</title>
<polygon fill="white" stroke="white" points="-4,5 -4,-172 753,-172 753,5 -4,5"/>
<!-- _diagram_info -->
<g id="node1" class="node"><title>_diagram_info</title>
<text text-anchor="start" x="8" y="-151.8" font-family="Times Roman,serif" font-size="13.00">Models diagram</text>
<text text-anchor="start" x="8" y="-134.8" font-family="Times Roman,serif" font-size="13.00">Date: Feb 02 2013 &#45; 16:47</text>
<text text-anchor="start" x="8" y="-117.8" font-family="Times Roman,serif" font-size="13.00">Migration version: 20130202022554</text>
<text text-anchor="start" x="8" y="-100.8" font-family="Times Roman,serif" font-size="13.00">Generated by RailRoady 1.1.0</text>
<text text-anchor="start" x="8" y="-83.8" font-family="Times Roman,serif" font-size="13.00">http://railroady.prestonlee.com</text>
</g>
<!-- Role -->
<g id="node2" class="node"><title>Role</title>
<ellipse fill="none" stroke="black" cx="300" cy="-121" rx="32.0265" ry="18.3848"/>
<text text-anchor="middle" x="300" y="-117.4" font-family="Times Roman,serif" font-size="14.00">Role</text>
</g>
<!-- User -->
<g id="node6" class="node"><title>User</title>
<ellipse fill="none" stroke="black" cx="300" cy="-19" rx="33.9411" ry="18.3848"/>
<text text-anchor="middle" x="300" y="-15.4" font-family="Times Roman,serif" font-size="14.00">User</text>
</g>
<!-- Role&#45;&gt;User -->
<g id="edge2" class="edge"><title>Role&#45;&gt;User</title>
<path fill="none" stroke="#2f0d31" d="M300,-92.0544C300,-78.2563 300,-61.7907 300,-47.9873"/>
<polygon fill="#2f0d31" stroke="#2f0d31" points="300,-92.2916 295.5,-102.292 300,-97.2916 300,-102.292 300,-102.292 300,-102.292 300,-97.2916 304.5,-102.292 300,-92.2916 300,-92.2916"/>
<polygon fill="#2f0d31" stroke="#2f0d31" points="300,-47.5898 304.5,-37.5897 300,-42.5898 300,-37.5898 300,-37.5898 300,-37.5898 300,-42.5898 295.5,-37.5898 300,-47.5898 300,-47.5898"/>
</g>
<!-- FeedEntry -->
<g id="node3" class="node"><title>FeedEntry</title>
<ellipse fill="none" stroke="black" cx="413" cy="-19" rx="61.0181" ry="18.3848"/>
<text text-anchor="middle" x="413" y="-15.4" font-family="Times Roman,serif" font-size="14.00">FeedEntry</text>
</g>
<!-- Ability -->
<g id="node4" class="node"><title>Ability</title>
<polygon fill="none" stroke="black" points="657,-139 597,-139 597,-103 657,-103 657,-139"/>
<text text-anchor="middle" x="627" y="-117.4" font-family="Times Roman,serif" font-size="14.00">Ability</text>
</g>
<!-- Classified -->
<g id="node5" class="node"><title>Classified</title>
<ellipse fill="none" stroke="black" cx="548" cy="-19" rx="56.0679" ry="18.3848"/>
<text text-anchor="middle" x="548" y="-15.4" font-family="Times Roman,serif" font-size="14.00">Classified</text>
</g>
<!-- Site -->
<g id="node7" class="node"><title>Site</title>
<ellipse fill="none" stroke="black" cx="548" cy="-121" rx="31.1127" ry="18.3848"/>
<text text-anchor="middle" x="548" y="-117.4" font-family="Times Roman,serif" font-size="14.00">Site</text>
</g>
<!-- Site&#45;&gt;FeedEntry -->
<g id="edge6" class="edge"><title>Site&#45;&gt;FeedEntry</title>
<path fill="none" stroke="#097c27" d="M521.972,-101.335C499.762,-84.5534 467.77,-60.3817 444.192,-42.5674"/>
<ellipse fill="none" stroke="#097c27" cx="525.466" cy="-103.975" rx="4.00002" ry="4.00002"/>
<polygon fill="#097c27" stroke="#097c27" points="443.899,-42.3457 438.633,-32.7269 439.909,-39.3315 435.92,-36.3173 435.92,-36.3173 435.92,-36.3173 439.909,-39.3315 433.207,-39.9078 443.899,-42.3457 443.899,-42.3457"/>
</g>
<!-- Site&#45;&gt;Classified -->
<g id="edge8" class="edge"><title>Site&#45;&gt;Classified</title>
<path fill="none" stroke="#662f15" d="M548,-94.0151C548,-79.8348 548,-62.4446 548,-47.9795"/>
<ellipse fill="none" stroke="#662f15" cx="548" cy="-98.2916" rx="4" ry="4"/>
<polygon fill="#662f15" stroke="#662f15" points="548,-47.5898 552.5,-37.5897 548,-42.5898 548,-37.5898 548,-37.5898 548,-37.5898 548,-42.5898 543.5,-37.5898 548,-47.5898 548,-47.5898"/>
</g>
<!-- Subscriber -->
<g id="node8" class="node"><title>Subscriber</title>
<ellipse fill="none" stroke="black" cx="685" cy="-19" rx="62.9325" ry="18.3848"/>
<text text-anchor="middle" x="685" y="-15.4" font-family="Times Roman,serif" font-size="14.00">Subscriber</text>
</g>
<!-- Site&#45;&gt;Subscriber -->
<g id="edge4" class="edge"><title>Site&#45;&gt;Subscriber</title>
<path fill="none" stroke="#cdd9ef" d="M565.567,-97.1402C572.079,-89.2211 579.87,-80.7199 588,-74 604.264,-60.5561 624.264,-48.5896 641.869,-39.2796"/>
<ellipse fill="none" stroke="#cdd9ef" cx="562.911" cy="-100.475" rx="4.00002" ry="4.00002"/>
<polygon fill="#cdd9ef" stroke="#cdd9ef" points="641.937,-39.2443 652.888,-38.6587 646.381,-36.9519 650.824,-34.6595 650.824,-34.6595 650.824,-34.6595 646.381,-36.9519 648.761,-30.6603 641.937,-39.2443 641.937,-39.2443"/>
</g>
</g>
</svg>
