<?xml version="1.0" encoding="UTF-8" standalone="no"?>
<!DOCTYPE svg PUBLIC "-//W3C//DTD SVG 1.1//EN"
 "http://www.w3.org/Graphics/SVG/1.1/DTD/svg11.dtd">
<!-- Generated by graphviz version 2.26.3 (20100126.1600)
 -->
<!-- Title: models_diagram Pages: 1 -->
<svg width="626pt" height="176pt"
 viewBox="0.00 0.00 626.00 176.00" xmlns="http://www.w3.org/2000/svg" xmlns:xlink="http://www.w3.org/1999/xlink">
<g id="graph1" class="graph" transform="scale(1 1) rotate(0) translate(4 172)">
<title>models_diagram</title>
<polygon fill="white" stroke="white" points="-4,5 -4,-172 623,-172 623,5 -4,5"/>
<!-- _diagram_info -->
<g id="node1" class="node"><title>_diagram_info</title>
<text text-anchor="start" x="8" y="-151.8" font-family="Times Roman,serif" font-size="13.00">Models diagram</text>
<text text-anchor="start" x="8" y="-134.8" font-family="Times Roman,serif" font-size="13.00">Date: Feb 01 2013 &#45; 18:02</text>
<text text-anchor="start" x="8" y="-117.8" font-family="Times Roman,serif" font-size="13.00">Migration version: 20130131064836</text>
<text text-anchor="start" x="8" y="-100.8" font-family="Times Roman,serif" font-size="13.00">Generated by RailRoady 1.1.0</text>
<text text-anchor="start" x="8" y="-83.8" font-family="Times Roman,serif" font-size="13.00">http://railroady.prestonlee.com</text>
</g>
<!-- Role -->
<g id="node2" class="node"><title>Role</title>
<ellipse fill="none" stroke="black" cx="300" cy="-121" rx="32.0265" ry="18.3848"/>
<text text-anchor="middle" x="300" y="-117.4" font-family="Times Roman,serif" font-size="14.00">Role</text>
</g>
<!-- User -->
<g id="node6" class="node"><title>User</title>
<ellipse fill="none" stroke="black" cx="300" cy="-19" rx="33.9411" ry="18.3848"/>
<text text-anchor="middle" x="300" y="-15.4" font-family="Times Roman,serif" font-size="14.00">User</text>
</g>
<!-- Role&#45;&gt;User -->
<g id="edge2" class="edge"><title>Role&#45;&gt;User</title>
<path fill="none" stroke="#514d83" d="M300,-92.0544C300,-78.2563 300,-61.7907 300,-47.9873"/>
<polygon fill="#514d83" stroke="#514d83" points="300,-92.2916 295.5,-102.292 300,-97.2916 300,-102.292 300,-102.292 300,-102.292 300,-97.2916 304.5,-102.292 300,-92.2916 300,-92.2916"/>
<polygon fill="#514d83" stroke="#514d83" points="300,-47.5898 304.5,-37.5897 300,-42.5898 300,-37.5898 300,-37.5898 300,-37.5898 300,-42.5898 295.5,-37.5898 300,-47.5898 300,-47.5898"/>
</g>
<!-- FeedEntry -->
<g id="node3" class="node"><title>FeedEntry</title>
<ellipse fill="none" stroke="black" cx="413" cy="-19" rx="61.0181" ry="18.3848"/>
<text text-anchor="middle" x="413" y="-15.4" font-family="Times Roman,serif" font-size="14.00">FeedEntry</text>
</g>
<!-- Ability -->
<g id="node4" class="node"><title>Ability</title>
<polygon fill="none" stroke="black" points="618,-139 558,-139 558,-103 618,-103 618,-139"/>
<text text-anchor="middle" x="588" y="-117.4" font-family="Times Roman,serif" font-size="14.00">Ability</text>
</g>
<!-- Classified -->
<g id="node5" class="node"><title>Classified</title>
<ellipse fill="none" stroke="black" cx="484" cy="-121" rx="56.0679" ry="18.3848"/>
<text text-anchor="middle" x="484" y="-117.4" font-family="Times Roman,serif" font-size="14.00">Classified</text>
</g>
<!-- Classified&#45;&gt;FeedEntry -->
<g id="edge6" class="edge"><title>Classified&#45;&gt;FeedEntry</title>
<path fill="none" stroke="#7829cf" d="M466.529,-95.9007C455.996,-80.7682 442.579,-61.4943 431.814,-46.0279"/>
<ellipse fill="none" stroke="#7829cf" cx="469.021" cy="-99.4815" rx="4.00002" ry="4.00002"/>
<polygon fill="#7829cf" stroke="#7829cf" points="431.536,-45.629 429.516,-34.8507 428.679,-41.5253 425.823,-37.4216 425.823,-37.4216 425.823,-37.4216 428.679,-41.5253 422.13,-39.9925 431.536,-45.629 431.536,-45.629"/>
</g>
<!-- Subscriber -->
<g id="node7" class="node"><title>Subscriber</title>
<ellipse fill="none" stroke="black" cx="555" cy="-19" rx="62.9325" ry="18.3848"/>
<text text-anchor="middle" x="555" y="-15.4" font-family="Times Roman,serif" font-size="14.00">Subscriber</text>
</g>
<!-- Classified&#45;&gt;Subscriber -->
<g id="edge4" class="edge"><title>Classified&#45;&gt;Subscriber</title>
<path fill="none" stroke="#1c6143" d="M501.471,-95.9007C512.004,-80.7682 525.421,-61.4943 536.186,-46.0279"/>
<ellipse fill="none" stroke="#1c6143" cx="498.979" cy="-99.4815" rx="4.00002" ry="4.00002"/>
<polygon fill="#1c6143" stroke="#1c6143" points="536.464,-45.629 545.87,-39.9925 539.321,-41.5253 542.177,-37.4216 542.177,-37.4216 542.177,-37.4216 539.321,-41.5253 538.484,-34.8507 536.464,-45.629 536.464,-45.629"/>
</g>
</g>
</svg>
