<?xml version="1.0" encoding="UTF-8" standalone="no"?>
<!DOCTYPE svg PUBLIC "-//W3C//DTD SVG 1.1//EN"
 "http://www.w3.org/Graphics/SVG/1.1/DTD/svg11.dtd">
<!-- Generated by graphviz version 2.26.3 (20100126.1600)
 -->
<!-- Title: models_diagram Pages: 1 -->
<svg width="1026pt" height="494pt"
 viewBox="0.00 0.00 1026.00 494.00" xmlns="http://www.w3.org/2000/svg" xmlns:xlink="http://www.w3.org/1999/xlink">
<g id="graph1" class="graph" transform="scale(1 1) rotate(0) translate(4 490)">
<title>models_diagram</title>
<polygon fill="white" stroke="white" points="-4,5 -4,-490 1023,-490 1023,5 -4,5"/>
<!-- _diagram_info -->
<g id="node1" class="node"><title>_diagram_info</title>
<text text-anchor="start" x="8" y="-435.8" font-family="Times Roman,serif" font-size="13.00">Models diagram</text>
<text text-anchor="start" x="8" y="-418.8" font-family="Times Roman,serif" font-size="13.00">Date: Feb 01 2013 &#45; 20:50</text>
<text text-anchor="start" x="8" y="-401.8" font-family="Times Roman,serif" font-size="13.00">Migration version: 20130202014110</text>
<text text-anchor="start" x="8" y="-384.8" font-family="Times Roman,serif" font-size="13.00">Generated by RailRoady 1.1.0</text>
<text text-anchor="start" x="8" y="-367.8" font-family="Times Roman,serif" font-size="13.00">http://railroady.prestonlee.com</text>
</g>
<!-- Role -->
<g id="node2" class="node"><title>Role</title>
<polyline fill="none" stroke="black" points="279.5,-334 420.5,-334 "/>
<path fill="none" stroke="black" d="M420.5,-334C426.5,-334 432.5,-340 432.5,-346"/>
<polyline fill="none" stroke="black" points="432.5,-346 432.5,-464 "/>
<path fill="none" stroke="black" d="M432.5,-464C432.5,-470 426.5,-476 420.5,-476"/>
<polyline fill="none" stroke="black" points="420.5,-476 279.5,-476 "/>
<path fill="none" stroke="black" d="M279.5,-476C273.5,-476 267.5,-470 267.5,-464"/>
<polyline fill="none" stroke="black" points="267.5,-464 267.5,-346 "/>
<path fill="none" stroke="black" d="M267.5,-346C267.5,-340 273.5,-334 279.5,-334"/>
<text text-anchor="middle" x="350" y="-459.4" font-family="Times Roman,serif" font-size="14.00">Role</text>
<polyline fill="none" stroke="black" points="267.5,-450 432.5,-450 "/>
<text text-anchor="start" x="275.5" y="-433.4" font-family="Times Roman,serif" font-size="14.00">id :integer</text>
<text text-anchor="start" x="275.5" y="-415.4" font-family="Times Roman,serif" font-size="14.00">name :string</text>
<text text-anchor="start" x="275.5" y="-397.4" font-family="Times Roman,serif" font-size="14.00">resource_id :integer</text>
<text text-anchor="start" x="275.5" y="-379.4" font-family="Times Roman,serif" font-size="14.00">resource_type :string</text>
<text text-anchor="start" x="275.5" y="-361.4" font-family="Times Roman,serif" font-size="14.00">created_at :datetime</text>
<text text-anchor="start" x="275.5" y="-343.4" font-family="Times Roman,serif" font-size="14.00">updated_at :datetime</text>
</g>
<!-- User -->
<g id="node6" class="node"><title>User</title>
<polyline fill="none" stroke="black" points="235,-1 465,-1 "/>
<path fill="none" stroke="black" d="M465,-1C471,-1 477,-7 477,-13"/>
<polyline fill="none" stroke="black" points="477,-13 477,-275 "/>
<path fill="none" stroke="black" d="M477,-275C477,-281 471,-287 465,-287"/>
<polyline fill="none" stroke="black" points="465,-287 235,-287 "/>
<path fill="none" stroke="black" d="M235,-287C229,-287 223,-281 223,-275"/>
<polyline fill="none" stroke="black" points="223,-275 223,-13 "/>
<path fill="none" stroke="black" d="M223,-13C223,-7 229,-1 235,-1"/>
<text text-anchor="middle" x="350" y="-270.4" font-family="Times Roman,serif" font-size="14.00">User</text>
<polyline fill="none" stroke="black" points="223,-261 477,-261 "/>
<text text-anchor="start" x="231" y="-244.4" font-family="Times Roman,serif" font-size="14.00">id :integer</text>
<text text-anchor="start" x="231" y="-226.4" font-family="Times Roman,serif" font-size="14.00">email :string</text>
<text text-anchor="start" x="231" y="-208.4" font-family="Times Roman,serif" font-size="14.00">encrypted_password :string</text>
<text text-anchor="start" x="231" y="-190.4" font-family="Times Roman,serif" font-size="14.00">reset_password_token :string</text>
<text text-anchor="start" x="231" y="-172.4" font-family="Times Roman,serif" font-size="14.00">reset_password_sent_at :datetime</text>
<text text-anchor="start" x="231" y="-154.4" font-family="Times Roman,serif" font-size="14.00">remember_created_at :datetime</text>
<text text-anchor="start" x="231" y="-136.4" font-family="Times Roman,serif" font-size="14.00">sign_in_count :integer</text>
<text text-anchor="start" x="231" y="-118.4" font-family="Times Roman,serif" font-size="14.00">current_sign_in_at :datetime</text>
<text text-anchor="start" x="231" y="-100.4" font-family="Times Roman,serif" font-size="14.00">last_sign_in_at :datetime</text>
<text text-anchor="start" x="231" y="-82.4" font-family="Times Roman,serif" font-size="14.00">current_sign_in_ip :string</text>
<text text-anchor="start" x="231" y="-64.4" font-family="Times Roman,serif" font-size="14.00">last_sign_in_ip :string</text>
<text text-anchor="start" x="231" y="-46.4" font-family="Times Roman,serif" font-size="14.00">created_at :datetime</text>
<text text-anchor="start" x="231" y="-28.4" font-family="Times Roman,serif" font-size="14.00">updated_at :datetime</text>
<text text-anchor="start" x="231" y="-10.4" font-family="Times Roman,serif" font-size="14.00">name :string</text>
</g>
<!-- Role&#45;&gt;User -->
<g id="edge2" class="edge"><title>Role&#45;&gt;User</title>
<path fill="none" stroke="#10da84" d="M350,-323.653C350,-315.225 350,-306.475 350,-297.579"/>
<polygon fill="#10da84" stroke="#10da84" points="350,-323.681 345.5,-333.681 350,-328.681 350,-333.681 350,-333.681 350,-333.681 350,-328.681 354.5,-333.681 350,-323.681 350,-323.681"/>
<polygon fill="#10da84" stroke="#10da84" points="350,-297.48 354.5,-287.48 350,-292.48 350,-287.48 350,-287.48 350,-287.48 350,-292.48 345.5,-287.48 350,-297.48 350,-297.48"/>
</g>
<!-- FeedEntry -->
<g id="node3" class="node"><title>FeedEntry</title>
<polyline fill="none" stroke="black" points="507,-55 657,-55 "/>
<path fill="none" stroke="black" d="M657,-55C663,-55 669,-61 669,-67"/>
<polyline fill="none" stroke="black" points="669,-67 669,-221 "/>
<path fill="none" stroke="black" d="M669,-221C669,-227 663,-233 657,-233"/>
<polyline fill="none" stroke="black" points="657,-233 507,-233 "/>
<path fill="none" stroke="black" d="M507,-233C501,-233 495,-227 495,-221"/>
<polyline fill="none" stroke="black" points="495,-221 495,-67 "/>
<path fill="none" stroke="black" d="M495,-67C495,-61 501,-55 507,-55"/>
<text text-anchor="middle" x="582" y="-216.4" font-family="Times Roman,serif" font-size="14.00">FeedEntry</text>
<polyline fill="none" stroke="black" points="495,-207 669,-207 "/>
<text text-anchor="start" x="503" y="-190.4" font-family="Times Roman,serif" font-size="14.00">id :integer</text>
<text text-anchor="start" x="503" y="-172.4" font-family="Times Roman,serif" font-size="14.00">name :string</text>
<text text-anchor="start" x="503" y="-154.4" font-family="Times Roman,serif" font-size="14.00">summary :text</text>
<text text-anchor="start" x="503" y="-136.4" font-family="Times Roman,serif" font-size="14.00">url :string</text>
<text text-anchor="start" x="503" y="-118.4" font-family="Times Roman,serif" font-size="14.00">published_at :datetime</text>
<text text-anchor="start" x="503" y="-100.4" font-family="Times Roman,serif" font-size="14.00">guid :string</text>
<text text-anchor="start" x="503" y="-82.4" font-family="Times Roman,serif" font-size="14.00">created_at :datetime</text>
<text text-anchor="start" x="503" y="-64.4" font-family="Times Roman,serif" font-size="14.00">updated_at :datetime</text>
</g>
<!-- Ability -->
<g id="node4" class="node"><title>Ability</title>
<polygon fill="none" stroke="black" points="776,-379 776,-431 836,-431 836,-379 776,-379"/>
<text text-anchor="middle" x="806" y="-414.4" font-family="Times Roman,serif" font-size="14.00">Ability</text>
<polyline fill="none" stroke="black" points="776,-405 836,-405 "/>
<text text-anchor="middle" x="806" y="-388.4" font-family="Times Roman,serif" font-size="14.00"> </text>
</g>
<!-- Classified -->
<g id="node5" class="node"><title>Classified</title>
<polyline fill="none" stroke="black" points="605.5,-325 746.5,-325 "/>
<path fill="none" stroke="black" d="M746.5,-325C752.5,-325 758.5,-331 758.5,-337"/>
<polyline fill="none" stroke="black" points="758.5,-337 758.5,-473 "/>
<path fill="none" stroke="black" d="M758.5,-473C758.5,-479 752.5,-485 746.5,-485"/>
<polyline fill="none" stroke="black" points="746.5,-485 605.5,-485 "/>
<path fill="none" stroke="black" d="M605.5,-485C599.5,-485 593.5,-479 593.5,-473"/>
<polyline fill="none" stroke="black" points="593.5,-473 593.5,-337 "/>
<path fill="none" stroke="black" d="M593.5,-337C593.5,-331 599.5,-325 605.5,-325"/>
<text text-anchor="middle" x="676" y="-468.4" font-family="Times Roman,serif" font-size="14.00">Classified</text>
<polyline fill="none" stroke="black" points="593.5,-459 758.5,-459 "/>
<text text-anchor="start" x="601.5" y="-442.4" font-family="Times Roman,serif" font-size="14.00">id :integer</text>
<text text-anchor="start" x="601.5" y="-424.4" font-family="Times Roman,serif" font-size="14.00">headline :string</text>
<text text-anchor="start" x="601.5" y="-406.4" font-family="Times Roman,serif" font-size="14.00">content :text</text>
<text text-anchor="start" x="601.5" y="-388.4" font-family="Times Roman,serif" font-size="14.00">created_at :datetime</text>
<text text-anchor="start" x="601.5" y="-370.4" font-family="Times Roman,serif" font-size="14.00">updated_at :datetime</text>
<text text-anchor="start" x="601.5" y="-352.4" font-family="Times Roman,serif" font-size="14.00">user_id :integer</text>
<text text-anchor="start" x="601.5" y="-334.4" font-family="Times Roman,serif" font-size="14.00">email :string</text>
</g>
<!-- Classified&#45;&gt;FeedEntry -->
<g id="edge6" class="edge"><title>Classified&#45;&gt;FeedEntry</title>
<path fill="none" stroke="#501fd0" d="M644.429,-317.34C635.799,-293.377 626.388,-267.247 617.552,-242.713"/>
<ellipse fill="none" stroke="#501fd0" cx="645.803" cy="-321.154" rx="4.00001" ry="4.00001"/>
<polygon fill="#501fd0" stroke="#501fd0" points="617.455,-242.444 618.3,-231.511 615.761,-237.74 614.067,-233.036 614.067,-233.036 614.067,-233.036 615.761,-237.74 609.833,-234.561 617.455,-242.444 617.455,-242.444"/>
</g>
<!-- Subscriber -->
<g id="node8" class="node"><title>Subscriber</title>
<polyline fill="none" stroke="black" points="698.5,-91 839.5,-91 "/>
<path fill="none" stroke="black" d="M839.5,-91C845.5,-91 851.5,-97 851.5,-103"/>
<polyline fill="none" stroke="black" points="851.5,-103 851.5,-185 "/>
<path fill="none" stroke="black" d="M851.5,-185C851.5,-191 845.5,-197 839.5,-197"/>
<polyline fill="none" stroke="black" points="839.5,-197 698.5,-197 "/>
<path fill="none" stroke="black" d="M698.5,-197C692.5,-197 686.5,-191 686.5,-185"/>
<polyline fill="none" stroke="black" points="686.5,-185 686.5,-103 "/>
<path fill="none" stroke="black" d="M686.5,-103C686.5,-97 692.5,-91 698.5,-91"/>
<text text-anchor="middle" x="769" y="-180.4" font-family="Times Roman,serif" font-size="14.00">Subscriber</text>
<polyline fill="none" stroke="black" points="686.5,-171 851.5,-171 "/>
<text text-anchor="start" x="694.5" y="-154.4" font-family="Times Roman,serif" font-size="14.00">id :integer</text>
<text text-anchor="start" x="694.5" y="-136.4" font-family="Times Roman,serif" font-size="14.00">email :string</text>
<text text-anchor="start" x="694.5" y="-118.4" font-family="Times Roman,serif" font-size="14.00">created_at :datetime</text>
<text text-anchor="start" x="694.5" y="-100.4" font-family="Times Roman,serif" font-size="14.00">updated_at :datetime</text>
</g>
<!-- Classified&#45;&gt;Subscriber -->
<g id="edge4" class="edge"><title>Classified&#45;&gt;Subscriber</title>
<path fill="none" stroke="#dcd776" d="M707.34,-317.046C720.241,-280.84 734.89,-239.729 746.671,-206.664"/>
<ellipse fill="none" stroke="#dcd776" cx="705.878" cy="-321.15" rx="4.00001" ry="4.00001"/>
<polygon fill="#dcd776" stroke="#dcd776" points="746.716,-206.54 754.311,-198.631 748.394,-201.83 750.072,-197.12 750.072,-197.12 750.072,-197.12 748.394,-201.83 745.833,-195.61 746.716,-206.54 746.716,-206.54"/>
</g>
<!-- Site -->
<g id="node7" class="node"><title>Site</title>
<polyline fill="none" stroke="black" points="865.5,-352 1006.5,-352 "/>
<path fill="none" stroke="black" d="M1006.5,-352C1012.5,-352 1018.5,-358 1018.5,-364"/>
<polyline fill="none" stroke="black" points="1018.5,-364 1018.5,-446 "/>
<path fill="none" stroke="black" d="M1018.5,-446C1018.5,-452 1012.5,-458 1006.5,-458"/>
<polyline fill="none" stroke="black" points="1006.5,-458 865.5,-458 "/>
<path fill="none" stroke="black" d="M865.5,-458C859.5,-458 853.5,-452 853.5,-446"/>
<polyline fill="none" stroke="black" points="853.5,-446 853.5,-364 "/>
<path fill="none" stroke="black" d="M853.5,-364C853.5,-358 859.5,-352 865.5,-352"/>
<text text-anchor="middle" x="936" y="-441.4" font-family="Times Roman,serif" font-size="14.00">Site</text>
<polyline fill="none" stroke="black" points="853.5,-432 1018.5,-432 "/>
<text text-anchor="start" x="861.5" y="-415.4" font-family="Times Roman,serif" font-size="14.00">id :integer</text>
<text text-anchor="start" x="861.5" y="-397.4" font-family="Times Roman,serif" font-size="14.00">name :string</text>
<text text-anchor="start" x="861.5" y="-379.4" font-family="Times Roman,serif" font-size="14.00">created_at :datetime</text>
<text text-anchor="start" x="861.5" y="-361.4" font-family="Times Roman,serif" font-size="14.00">updated_at :datetime</text>
</g>
</g>
</svg>
